<svg width="163" height="28" viewBox="0 0 163 28" fill="none" xmlns="http://www.w3.org/2000/svg">
<g clip-path="url(#clip0_776_33782)">
<path d="M46.2517 24.4754H41.2167C40.4894 24.4754 40.1398 24.0838 39.972 23.7621L37.9999 20.2236V23.4964C37.9999 23.7621 37.902 23.9999 37.7062 24.1817C37.5104 24.3775 37.2727 24.4754 37.0209 24.4754H32.7971C32.5314 24.4754 32.2936 24.3775 32.1118 24.1817C31.916 23.9859 31.8181 23.7481 31.8181 23.4964V9.20265C31.8181 8.93692 31.916 8.69916 32.1118 8.51734C32.3076 8.33552 32.5454 8.22363 32.7971 8.22363H37.0209C37.2866 8.22363 37.5244 8.32154 37.7062 8.51734C37.902 8.69916 37.9999 8.95091 37.9999 9.20265V12.1117L39.7762 8.90895C39.93 8.58727 40.2797 8.22363 40.9929 8.22363H45.888C46.1258 8.22363 46.3356 8.30755 46.5034 8.47538C46.7132 8.68517 46.7552 8.90895 46.7552 9.04881C46.7552 9.23063 46.7132 9.38447 46.6293 9.52433L42.7692 15.9999L47.0069 23.1467C47.0908 23.2726 47.1328 23.4404 47.1328 23.6222C47.1328 23.7761 47.0908 23.9859 46.8811 24.1957C46.6992 24.3775 46.4894 24.4754 46.2517 24.4754ZM37.2307 17.3006L40.6433 23.3985C40.7272 23.5523 40.8531 23.7062 41.2167 23.7062H46.2657C46.2936 23.7062 46.3076 23.7062 46.3356 23.6782C46.3636 23.6502 46.3636 23.6362 46.3636 23.6362C46.3636 23.5943 46.3496 23.5663 46.3496 23.5523L41.8741 16.0138L45.972 9.13272C45.972 9.13272 45.9859 9.10475 45.9859 9.04881C45.9859 9.04881 45.986 9.03482 45.958 9.00685C45.93 8.97888 45.916 8.97888 45.888 8.97888H41.0069C40.6433 8.97888 40.5314 9.11874 40.4615 9.2586L40.4475 9.27258L37.2307 15.0488V9.20265C37.2307 9.14671 37.2167 9.10475 37.1608 9.04881C37.1188 9.00685 37.0769 8.97888 37.0069 8.97888H32.7831C32.7272 8.97888 32.6713 8.99286 32.6293 9.04881C32.5873 9.10475 32.5594 9.13272 32.5594 9.20265V23.4964C32.5594 23.5523 32.5734 23.6083 32.6293 23.6502C32.6852 23.6922 32.7132 23.7201 32.7831 23.7201H37.0069C37.0629 23.7201 37.1188 23.7062 37.1608 23.6502C37.2027 23.6083 37.2307 23.5663 37.2307 23.4964V17.3006V17.3006Z" fill="white"/>
<path d="M52.028 24.4754H49.2588C48.993 24.4754 48.7553 24.3775 48.5734 24.1817C48.3776 23.9859 48.2797 23.7481 48.2797 23.4964V19.9579C48.2797 19.6922 48.3776 19.4544 48.5734 19.2726C48.7692 19.0908 48.993 18.9789 49.2588 18.9789H51.4685C51.8322 18.9789 52.056 18.9509 52.1818 18.9229L47.1748 9.44042L47.1609 9.41244C47.1329 9.32853 47.1189 9.23063 47.1189 9.13272V9.07678C47.2028 8.53133 47.5525 8.22363 48.042 8.22363H52.6574C52.979 8.22363 53.4266 8.34951 53.7063 8.97888L55.3846 12.5173L56.6993 9.00685C56.9091 8.50335 57.3007 8.22363 57.8042 8.22363H62.3776C62.6014 8.22363 62.8112 8.30755 62.993 8.47538C63.2168 8.68517 63.2727 8.92293 63.2727 9.07678C63.2727 9.2586 63.2588 9.37049 63.2168 9.4544L58.8112 19.7341C58.014 21.6082 57.1748 22.853 56.2657 23.4964C55.3846 24.1537 53.986 24.4754 52.028 24.4754ZM49.2588 19.7341C49.2028 19.7341 49.1469 19.7481 49.1049 19.8041C49.063 19.86 49.035 19.888 49.035 19.9579V23.4964C49.035 23.5523 49.049 23.6083 49.1049 23.6502C49.1609 23.6922 49.1888 23.7201 49.2588 23.7201H52.028C53.7902 23.7201 55.0909 23.4404 55.8602 22.881C56.6434 22.3215 57.4126 21.1607 58.1539 19.4404L62.5455 9.18867C62.5455 9.17468 62.5455 9.14671 62.5455 9.09077C62.5455 9.09077 62.5315 9.07678 62.5175 9.04881C62.4755 9.00685 62.4476 9.00685 62.4196 9.00685H57.8462C57.6783 9.00685 57.5525 9.06279 57.4406 9.30056L55.4965 14.4894L53.049 9.31454C52.9091 9.00685 52.7553 9.00685 52.6853 9.00685H48.056C47.986 9.00685 47.9161 9.00685 47.8881 9.17468L53.0909 19.0348L53.035 19.1887C52.8532 19.6782 52.1399 19.7481 51.4546 19.7481L49.2588 19.7341Z" fill="white"/>
<path d="M78.5454 24.4754H74.2097C73.944 24.4754 73.7062 24.3775 73.5244 24.1817C73.3426 23.9859 73.2307 23.7481 73.2307 23.4964V13.86H70.4055V23.4964C70.4055 23.7621 70.3076 23.9999 70.1118 24.1817C69.916 24.3775 69.6783 24.4754 69.4265 24.4754H65.0908C64.8391 24.4754 64.6013 24.3775 64.4055 24.2096C64.2097 24.0278 64.1118 23.7761 64.1118 23.4964V9.20265C64.1118 8.93692 64.2097 8.69916 64.4055 8.51734C64.6013 8.33552 64.8251 8.22363 65.0908 8.22363H78.5314C78.7971 8.22363 79.0349 8.32154 79.2167 8.51734C79.3985 8.69916 79.5104 8.93692 79.5104 9.20265V23.4964C79.5104 23.7621 79.4125 23.9999 79.2167 24.1817C79.0489 24.3635 78.8111 24.4754 78.5454 24.4754ZM69.6503 13.0908H73.9859V23.4964C73.9859 23.5523 73.9999 23.6083 74.0559 23.6502C74.1118 23.6922 74.1398 23.7201 74.2097 23.7201H78.5454C78.6013 23.7201 78.6573 23.7062 78.6992 23.6502C78.7412 23.6083 78.7692 23.5663 78.7692 23.4964V9.20265C78.7692 9.14671 78.7552 9.10475 78.6992 9.04881C78.6573 9.00685 78.6013 8.97888 78.5454 8.97888H65.1048C65.0489 8.97888 64.9929 8.99286 64.951 9.04881C64.909 9.10475 64.881 9.13272 64.881 9.20265V23.4964C64.881 23.5803 64.909 23.6222 64.937 23.6502C64.9789 23.6922 65.0349 23.7062 65.0908 23.7062H69.4265C69.4824 23.7062 69.5384 23.6922 69.5803 23.6362C69.6223 23.5943 69.6503 23.5523 69.6503 23.4824V13.0908Z" fill="white"/>
<path d="M95.3565 24.4754H91.3565C91.0908 24.4754 90.853 24.3775 90.6712 24.1817C90.4894 23.9859 90.3775 23.7481 90.3775 23.4964V19.2166L87.3425 23.8041C87.0488 24.2516 86.6292 24.4894 86.1118 24.4894H82.6153C82.3495 24.4894 82.1118 24.3915 81.9299 24.1957C81.7481 23.9999 81.6362 23.7621 81.6362 23.5103V9.20265C81.6362 8.93692 81.7341 8.69916 81.9299 8.51734C82.1257 8.33552 82.3495 8.22363 82.6153 8.22363H86.6152C86.881 8.22363 87.1187 8.32154 87.3006 8.51734C87.4824 8.69916 87.5943 8.93692 87.5943 9.20265V13.888L90.6292 8.92293C90.881 8.47538 91.3145 8.23762 91.86 8.23762H95.3565C95.6222 8.23762 95.86 8.33552 96.0418 8.53133C96.2236 8.71314 96.3355 8.96489 96.3355 9.21664V23.4964C96.3355 23.7621 96.2376 23.9999 96.0418 24.1817C95.86 24.3635 95.6222 24.4754 95.3565 24.4754ZM91.1327 16.6712V23.4964C91.1327 23.5523 91.1467 23.5943 91.2027 23.6502C91.2446 23.6922 91.2866 23.7201 91.3565 23.7201H95.3565C95.4124 23.7201 95.4684 23.7062 95.5104 23.6502C95.5523 23.5943 95.5803 23.5663 95.5803 23.4964V9.20265C95.5803 9.14671 95.5663 9.09077 95.5104 9.04881C95.4684 9.00685 95.4124 8.97888 95.3565 8.97888H91.86C91.5803 8.97888 91.4125 9.07678 91.2866 9.30056L86.839 16.6013V9.20265C86.839 9.14671 86.825 9.10475 86.7691 9.04881C86.7271 9.00685 86.6712 8.97888 86.6152 8.97888H82.6153C82.5593 8.97888 82.5034 8.99286 82.4614 9.04881C82.4194 9.10475 82.3915 9.13272 82.3915 9.20265V23.4964C82.3915 23.5523 82.4055 23.6083 82.4614 23.6502C82.5034 23.6922 82.5453 23.7201 82.6153 23.7201H86.1118C86.3635 23.7201 86.5453 23.6222 86.6992 23.3845L91.1327 16.6712Z" fill="white"/>
<path d="M98.6573 8.44727H111.748C111.916 8.44727 112.056 8.50321 112.168 8.62908C112.28 8.74097 112.35 8.89482 112.35 9.04866V12.6431C112.35 12.8109 112.294 12.9508 112.168 13.0627C112.056 13.1745 111.902 13.2445 111.748 13.2445H108.042V23.4822C108.042 23.6501 107.986 23.7899 107.86 23.9018C107.748 24.0277 107.594 24.0836 107.441 24.0836H102.965C102.797 24.0836 102.657 24.0277 102.545 23.9018C102.434 23.7759 102.364 23.6361 102.364 23.4822V13.2445H98.6573C98.4895 13.2445 98.3496 13.1885 98.2377 13.0627C98.1258 12.9508 98.0559 12.7969 98.0559 12.6431V9.04866C98.0559 8.88083 98.1119 8.74097 98.2377 8.62908C98.3636 8.50321 98.5035 8.44727 98.6573 8.44727Z" fill="white"/>
<path d="M115.091 8.44727H121.748C123.888 8.44727 125.566 8.9088 126.783 9.83188C127.986 10.755 128.587 12.1116 128.587 13.9158C128.587 15.72 127.986 17.0487 126.783 17.9158C125.58 18.7829 123.902 19.2165 121.748 19.2165H120.294V23.4822C120.294 23.6501 120.238 23.7899 120.112 23.9018C120 24.0277 119.846 24.0836 119.692 24.0836H115.091C114.923 24.0836 114.783 24.0277 114.671 23.9018C114.559 23.7759 114.49 23.6361 114.49 23.4822V9.04866C114.49 8.88083 114.545 8.74097 114.671 8.62908C114.783 8.50321 114.923 8.44727 115.091 8.44727ZM120.182 12.6011V15.0766H121.748C122.014 15.0766 122.252 14.9787 122.462 14.7689C122.671 14.5592 122.769 14.2794 122.769 13.9018C122.769 13.5242 122.685 13.2165 122.517 12.9647C122.35 12.713 122.098 12.5871 121.734 12.5871C121.748 12.6011 120.182 12.6011 120.182 12.6011Z" fill="white"/>
<path d="M131.091 8.44758H135.133C135.301 8.44758 135.441 8.50352 135.552 8.6294C135.664 8.74129 135.734 8.89513 135.734 9.04898V15.1469L139.51 8.95108C139.706 8.61541 140.014 8.43359 140.42 8.43359H143.958C144.126 8.43359 144.266 8.48954 144.378 8.61541C144.49 8.7273 144.559 8.88115 144.559 9.03499V23.4686C144.559 23.6364 144.503 23.7763 144.378 23.8881C144.266 24.014 144.112 24.07 143.958 24.07H139.916C139.748 24.07 139.608 24.014 139.497 23.8881C139.385 23.7623 139.315 23.6224 139.315 23.4686V17.8602L135.538 23.5525C135.315 23.8881 135.007 24.07 134.629 24.07H131.091C130.923 24.07 130.783 24.014 130.671 23.8881C130.559 23.7623 130.49 23.6224 130.49 23.4686V9.04898C130.49 8.88115 130.545 8.74129 130.671 8.6294C130.783 8.50352 130.923 8.44758 131.091 8.44758Z" fill="white"/>
<path d="M148.07 8.44727H161.664C161.832 8.44727 161.972 8.50321 162.084 8.62908C162.196 8.74097 162.266 8.89482 162.266 9.04866V23.4822C162.266 23.6501 162.21 23.7899 162.084 23.9018C161.972 24.0277 161.818 24.0836 161.664 24.0836H157.287C157.119 24.0836 156.979 24.0277 156.867 23.9018C156.755 23.7759 156.685 23.6361 156.685 23.4822V13.3564H153.063V23.4822C153.063 23.6501 153.007 23.7899 152.881 23.9018C152.769 24.0277 152.615 24.0836 152.461 24.0836H148.084C147.916 24.0836 147.776 24.0277 147.664 23.9158C147.552 23.8039 147.482 23.664 147.482 23.4822V9.04866C147.482 8.88083 147.538 8.74097 147.664 8.62908C147.762 8.50321 147.902 8.44727 148.07 8.44727Z" fill="white"/>
<path d="M24.0979 11.3566C24.0979 8.2797 22.9231 5.59438 20.979 3.62235C20.5595 3.53844 19.4546 3.37061 18.0699 3.37061C16.3077 3.37061 14.0839 3.66431 12.2518 4.83914C10.5455 5.93005 9.42659 7.62235 8.9231 9.88809C9.60841 8.78319 10.8252 8.05592 12.2098 8.05592C14.3497 8.05592 16.0699 9.79018 16.0699 11.9161C16.0699 14.0559 14.3357 15.7762 12.2098 15.7762C10.9231 15.7762 9.77624 15.1468 9.07694 14.1678C10.2797 18.3496 14.2658 21.8601 17.1748 23.944C17.3007 24.0279 17.4126 24.1258 17.5385 24.1958C17.5944 24.1258 17.6644 24.0559 17.7203 23.986C20.9511 20.4615 24.0979 15.2727 24.0979 11.3566Z" fill="white"/>
<path d="M13.147 22.0837C8.8113 18.0418 6.96514 13.776 7.81829 9.77602C8.36374 7.14665 9.66444 5.16063 11.6644 3.8879C14.2519 2.23755 17.3987 2.13965 19.4127 2.2935C19.5386 2.37741 19.6505 2.46133 19.7763 2.55923C19.6644 2.47532 19.5526 2.37741 19.4267 2.2935C17.4826 0.866925 15.0211 0.0557361 12.0561 0.0837082C8.9092 0.0557361 6.34976 0.964827 4.34976 2.54525C1.7064 4.55923 0.0280762 7.67811 0.0280762 11.3564C0.0280762 15.2585 3.16094 20.4613 6.39171 23.9858C8.2099 26.0697 9.95815 27.4963 11.4686 27.832C11.6784 27.8879 11.8742 27.9159 12.0421 27.9019H12.0561C12.2379 27.9019 12.4197 27.8739 12.6295 27.832C13.8742 27.5522 15.2728 26.5313 16.7554 25.0208C16.7414 25.0208 16.7414 25.0068 16.7274 25.0068C15.6505 24.2236 14.3777 23.2445 13.147 22.0837Z" fill="white"/>
<path d="M24.0979 11.3566C24.0979 8.2797 22.9231 5.59438 20.979 3.62235C20.5595 3.53844 19.4546 3.37061 18.0699 3.37061C16.3077 3.37061 14.0839 3.66431 12.2518 4.83914C10.5455 5.93005 9.42659 7.62235 8.9231 9.88809C9.60841 8.78319 10.8252 8.05592 12.2098 8.05592C14.3497 8.05592 16.0699 9.79019 16.0699 11.9161C16.0699 14.0559 14.3357 15.7762 12.2098 15.7762C10.9231 15.7762 9.77624 15.1468 9.07694 14.1678C10.2797 18.3496 14.2658 21.8601 17.1748 23.944C17.3007 24.0279 17.4126 24.1258 17.5385 24.1958C17.5944 24.1258 17.6644 24.0559 17.7203 23.986C20.9511 20.4615 24.0979 15.2727 24.0979 11.3566Z" fill="white"/>
<path d="M13.147 22.0837C8.8113 18.0418 6.96514 13.776 7.81829 9.77602C8.36374 7.14665 9.66444 5.16063 11.6644 3.8879C14.2519 2.23755 17.3987 2.13965 19.4127 2.2935C19.5386 2.37741 19.6505 2.46133 19.7763 2.55923C19.6644 2.47532 19.5526 2.37741 19.4267 2.2935C17.4826 0.866925 15.0211 0.0557361 12.0561 0.0837082C8.9092 0.0557361 6.34976 0.964827 4.34976 2.54525C1.7064 4.55923 0.0280762 7.67811 0.0280762 11.3564C0.0280762 15.2585 3.16094 20.4613 6.39171 23.9858C8.2099 26.0697 9.95815 27.4963 11.4686 27.832C11.6784 27.8879 11.8742 27.9159 12.0421 27.9019H12.0561C12.2379 27.9019 12.4197 27.8739 12.6295 27.832C13.8742 27.5522 15.2728 26.5313 16.7554 25.0208C16.7414 25.0208 16.7414 25.0068 16.7274 25.0068C15.6505 24.2236 14.3777 23.2445 13.147 22.0837Z" fill="white"/>
<path d="M24.0979 11.3566C24.0979 8.2797 22.9231 5.59438 20.979 3.62235C20.5595 3.53844 19.4546 3.37061 18.0699 3.37061C16.3077 3.37061 14.0839 3.66431 12.2518 4.83914C10.5455 5.93005 9.42659 7.62235 8.9231 9.88809C9.60841 8.78319 10.8252 8.05592 12.2098 8.05592C14.3497 8.05592 16.0699 9.79019 16.0699 11.9161C16.0699 14.0559 14.3357 15.7762 12.2098 15.7762C10.9231 15.7762 9.77624 15.1468 9.07694 14.1678C10.2797 18.3496 14.2658 21.8601 17.1748 23.944C17.3007 24.0279 17.4126 24.1258 17.5385 24.1958C17.5944 24.1258 17.6644 24.0559 17.7203 23.986C20.9511 20.4615 24.0979 15.2727 24.0979 11.3566Z" fill="white"/>
<path d="M13.147 22.0837C8.8113 18.0418 6.96514 13.776 7.81829 9.77602C8.36374 7.14665 9.66444 5.16063 11.6644 3.8879C14.2519 2.23755 17.3987 2.13965 19.4127 2.2935C19.5386 2.37741 19.6505 2.46133 19.7763 2.55923C19.6644 2.47532 19.5526 2.37741 19.4267 2.2935C17.4826 0.866925 15.0211 0.0557361 12.0561 0.0837082C8.9092 0.0557361 6.34976 0.964827 4.34976 2.54525C1.7064 4.55923 0.0280762 7.67811 0.0280762 11.3564C0.0280762 15.2585 3.16094 20.4613 6.39171 23.9858C8.2099 26.0697 9.95815 27.4963 11.4686 27.832C11.6784 27.8879 11.8742 27.9159 12.0421 27.9019H12.0561C12.2379 27.9019 12.4197 27.8739 12.6295 27.832C13.8742 27.5522 15.2728 26.5313 16.7554 25.0208C16.7414 25.0208 16.7414 25.0068 16.7274 25.0068C15.6505 24.2236 14.3777 23.2445 13.147 22.0837Z" fill="white"/>
</g>
<defs>
<clipPath id="clip0_776_33782">
<rect width="162.252" height="28" fill="white"/>
</clipPath>
</defs>
</svg>
