<svg width="163" height="28" viewBox="0 0 163 28" fill="none" xmlns="http://www.w3.org/2000/svg">
<g clip-path="url(#clip0_776_41689)">
<path d="M46.2519 24.4754H41.217C40.4897 24.4754 40.14 24.0838 39.9722 23.7621L38.0002 20.2236V23.4964C38.0002 23.7621 37.9023 23.9999 37.7065 24.1817C37.5107 24.3775 37.2729 24.4754 37.0212 24.4754H32.7974C32.5316 24.4754 32.2939 24.3775 32.1121 24.1817C31.9163 23.9859 31.8184 23.7481 31.8184 23.4964V9.20265C31.8184 8.93692 31.9163 8.69916 32.1121 8.51734C32.3079 8.33552 32.5456 8.22363 32.7974 8.22363H37.0212C37.2869 8.22363 37.5247 8.32154 37.7065 8.51734C37.9023 8.69916 38.0002 8.95091 38.0002 9.20265V12.1117L39.7764 8.90895C39.9302 8.58727 40.2799 8.22363 40.9932 8.22363H45.8883C46.1261 8.22363 46.3358 8.30755 46.5037 8.47538C46.7135 8.68517 46.7554 8.90895 46.7554 9.04881C46.7554 9.23063 46.7135 9.38447 46.6296 9.52433L42.7694 15.9999L47.0072 23.1467C47.0911 23.2726 47.133 23.4404 47.133 23.6222C47.133 23.7761 47.0911 23.9859 46.8813 24.1957C46.6995 24.3775 46.4897 24.4754 46.2519 24.4754ZM37.2309 17.3006L40.6435 23.3985C40.7275 23.5523 40.8533 23.7062 41.217 23.7062H46.2659C46.2939 23.7062 46.3079 23.7062 46.3358 23.6782C46.3638 23.6502 46.3638 23.6362 46.3638 23.6362C46.3638 23.5943 46.3498 23.5663 46.3498 23.5523L41.8743 16.0138L45.9722 9.13272C45.9722 9.13272 45.9862 9.10475 45.9862 9.04881C45.9862 9.04881 45.9862 9.03482 45.9582 9.00685C45.9303 8.97888 45.9163 8.97888 45.8883 8.97888H41.0072C40.6435 8.97888 40.5316 9.11874 40.4617 9.2586L40.4477 9.27258L37.2309 15.0488V9.20265C37.2309 9.14671 37.217 9.10475 37.161 9.04881C37.1191 9.00685 37.0771 8.97888 37.0072 8.97888H32.7834C32.7274 8.97888 32.6715 8.99286 32.6295 9.04881C32.5876 9.10475 32.5596 9.13272 32.5596 9.20265V23.4964C32.5596 23.5523 32.5736 23.6083 32.6295 23.6502C32.6855 23.6922 32.7135 23.7201 32.7834 23.7201H37.0072C37.0631 23.7201 37.1191 23.7062 37.161 23.6502C37.203 23.6083 37.2309 23.5663 37.2309 23.4964V17.3006V17.3006Z" fill="white"/>
<path d="M52.0282 24.4754H49.259C48.9933 24.4754 48.7555 24.3775 48.5737 24.1817C48.3779 23.9859 48.28 23.7481 48.28 23.4964V19.9579C48.28 19.6922 48.3779 19.4544 48.5737 19.2726C48.7695 19.0908 48.9933 18.9789 49.259 18.9789H51.4688C51.8324 18.9789 52.0562 18.9509 52.1821 18.9229L47.1751 9.44042L47.1611 9.41244C47.1331 9.32853 47.1191 9.23063 47.1191 9.13272V9.07678C47.2031 8.53133 47.5527 8.22363 48.0422 8.22363H52.6576C52.9793 8.22363 53.4268 8.34951 53.7066 8.97888L55.3849 12.5173L56.6996 9.00685C56.9094 8.50335 57.301 8.22363 57.8045 8.22363H62.3779C62.6017 8.22363 62.8114 8.30755 62.9933 8.47538C63.217 8.68517 63.273 8.92293 63.273 9.07678C63.273 9.2586 63.259 9.37049 63.217 9.4544L58.8114 19.7341C58.0142 21.6082 57.1751 22.853 56.266 23.4964C55.3849 24.1537 53.9863 24.4754 52.0282 24.4754ZM49.259 19.7341C49.2031 19.7341 49.1471 19.7481 49.1052 19.8041C49.0632 19.86 49.0352 19.888 49.0352 19.9579V23.4964C49.0352 23.5523 49.0492 23.6083 49.1052 23.6502C49.1611 23.6922 49.1891 23.7201 49.259 23.7201H52.0282C53.7905 23.7201 55.0912 23.4404 55.8604 22.881C56.6436 22.3215 57.4128 21.1607 58.1541 19.4404L62.5457 9.18867C62.5457 9.17468 62.5457 9.14671 62.5457 9.09077C62.5457 9.09077 62.5317 9.07678 62.5177 9.04881C62.4758 9.00685 62.4478 9.00685 62.4198 9.00685H57.8464C57.6786 9.00685 57.5527 9.06279 57.4408 9.30056L55.4968 14.4894L53.0492 9.31454C52.9093 9.00685 52.7555 9.00685 52.6856 9.00685H48.0562C47.9863 9.00685 47.9163 9.00685 47.8884 9.17468L53.0912 19.0348L53.0352 19.1887C52.8534 19.6782 52.1401 19.7481 51.4548 19.7481L49.259 19.7341Z" fill="white"/>
<path d="M78.5459 24.4754H74.2102C73.9445 24.4754 73.7067 24.3775 73.5249 24.1817C73.3431 23.9859 73.2312 23.7481 73.2312 23.4964V13.86H70.406V23.4964C70.406 23.7621 70.3081 23.9999 70.1123 24.1817C69.9165 24.3775 69.6787 24.4754 69.427 24.4754H65.0913C64.8396 24.4754 64.6018 24.3775 64.406 24.2096C64.2102 24.0278 64.1123 23.7761 64.1123 23.4964V9.20265C64.1123 8.93692 64.2102 8.69916 64.406 8.51734C64.6018 8.33552 64.8256 8.22363 65.0913 8.22363H78.5319C78.7976 8.22363 79.0354 8.32154 79.2172 8.51734C79.399 8.69916 79.5109 8.93692 79.5109 9.20265V23.4964C79.5109 23.7621 79.413 23.9999 79.2172 24.1817C79.0494 24.3635 78.8116 24.4754 78.5459 24.4754ZM69.6508 13.0908H73.9864V23.4964C73.9864 23.5523 74.0004 23.6083 74.0564 23.6502C74.1123 23.6922 74.1403 23.7201 74.2102 23.7201H78.5459C78.6018 23.7201 78.6578 23.7062 78.6997 23.6502C78.7417 23.6083 78.7697 23.5663 78.7697 23.4964V9.20265C78.7697 9.14671 78.7557 9.10475 78.6997 9.04881C78.6578 9.00685 78.6018 8.97888 78.5459 8.97888H65.1053C65.0494 8.97888 64.9934 8.99286 64.9515 9.04881C64.9095 9.10475 64.8815 9.13272 64.8815 9.20265V23.4964C64.8815 23.5803 64.9095 23.6222 64.9375 23.6502C64.9794 23.6922 65.0354 23.7062 65.0913 23.7062H69.427C69.4829 23.7062 69.5389 23.6922 69.5808 23.6362C69.6228 23.5943 69.6508 23.5523 69.6508 23.4824V13.0908Z" fill="white"/>
<path d="M95.357 24.4754H91.357C91.0913 24.4754 90.8535 24.3775 90.6717 24.1817C90.4899 23.9859 90.378 23.7481 90.378 23.4964V19.2166L87.343 23.8041C87.0493 24.2516 86.6297 24.4894 86.1122 24.4894H82.6157C82.35 24.4894 82.1122 24.3915 81.9304 24.1957C81.7486 23.9999 81.6367 23.7621 81.6367 23.5103V9.20265C81.6367 8.93692 81.7346 8.69916 81.9304 8.51734C82.1262 8.33552 82.35 8.22363 82.6157 8.22363H86.6157C86.8815 8.22363 87.1192 8.32154 87.3011 8.51734C87.4829 8.69916 87.5948 8.93692 87.5948 9.20265V13.888L90.6297 8.92293C90.8815 8.47538 91.315 8.23762 91.8605 8.23762H95.357C95.6227 8.23762 95.8605 8.33552 96.0423 8.53133C96.2241 8.71314 96.336 8.96489 96.336 9.21664V23.4964C96.336 23.7621 96.2381 23.9999 96.0423 24.1817C95.8605 24.3635 95.6227 24.4754 95.357 24.4754ZM91.1332 16.6712V23.4964C91.1332 23.5523 91.1472 23.5943 91.2031 23.6502C91.2451 23.6922 91.2871 23.7201 91.357 23.7201H95.357C95.4129 23.7201 95.4689 23.7062 95.5108 23.6502C95.5528 23.5943 95.5808 23.5663 95.5808 23.4964V9.20265C95.5808 9.14671 95.5668 9.09077 95.5108 9.04881C95.4689 9.00685 95.4129 8.97888 95.357 8.97888H91.8605C91.5808 8.97888 91.4129 9.07678 91.2871 9.30056L86.8395 16.6013V9.20265C86.8395 9.14671 86.8255 9.10475 86.7696 9.04881C86.7276 9.00685 86.6717 8.97888 86.6157 8.97888H82.6157C82.5598 8.97888 82.5038 8.99286 82.4619 9.04881C82.4199 9.10475 82.392 9.13272 82.392 9.20265V23.4964C82.392 23.5523 82.4059 23.6083 82.4619 23.6502C82.5038 23.6922 82.5458 23.7201 82.6157 23.7201H86.1122C86.364 23.7201 86.5458 23.6222 86.6997 23.3845L91.1332 16.6712Z" fill="white"/>
<path d="M98.6576 8.44727H111.748C111.916 8.44727 112.056 8.50321 112.168 8.62908C112.28 8.74097 112.35 8.89482 112.35 9.04866V12.6431C112.35 12.8109 112.294 12.9508 112.168 13.0627C112.056 13.1745 111.902 13.2445 111.748 13.2445H108.042V23.4822C108.042 23.6501 107.986 23.7899 107.86 23.9018C107.748 24.0277 107.595 24.0836 107.441 24.0836H102.965C102.797 24.0836 102.658 24.0277 102.546 23.9018C102.434 23.7759 102.364 23.6361 102.364 23.4822V13.2445H98.6576C98.4897 13.2445 98.3499 13.1885 98.238 13.0627C98.1261 12.9508 98.0562 12.7969 98.0562 12.6431V9.04866C98.0562 8.88083 98.1121 8.74097 98.238 8.62908C98.3639 8.50321 98.5037 8.44727 98.6576 8.44727Z" fill="white"/>
<path d="M115.091 8.44727H121.748C123.888 8.44727 125.567 8.9088 126.783 9.83188C127.986 10.755 128.588 12.1116 128.588 13.9158C128.588 15.72 127.986 17.0487 126.783 17.9158C125.581 18.7829 123.902 19.2165 121.748 19.2165H120.294V23.4822C120.294 23.6501 120.238 23.7899 120.112 23.9018C120 24.0277 119.846 24.0836 119.693 24.0836H115.091C114.923 24.0836 114.783 24.0277 114.672 23.9018C114.56 23.7759 114.49 23.6361 114.49 23.4822V9.04866C114.49 8.88083 114.546 8.74097 114.672 8.62908C114.783 8.50321 114.923 8.44727 115.091 8.44727ZM120.182 12.6011V15.0766H121.748C122.014 15.0766 122.252 14.9787 122.462 14.7689C122.672 14.5592 122.769 14.2794 122.769 13.9018C122.769 13.5242 122.686 13.2165 122.518 12.9647C122.35 12.713 122.098 12.5871 121.735 12.5871C121.748 12.6011 120.182 12.6011 120.182 12.6011Z" fill="white"/>
<path d="M131.091 8.44758H135.133C135.301 8.44758 135.441 8.50352 135.553 8.6294C135.665 8.74129 135.735 8.89513 135.735 9.04898V15.1469L139.511 8.95108C139.707 8.61541 140.014 8.43359 140.42 8.43359H143.958C144.126 8.43359 144.266 8.48954 144.378 8.61541C144.49 8.7273 144.56 8.88115 144.56 9.03499V23.4686C144.56 23.6364 144.504 23.7763 144.378 23.8881C144.266 24.014 144.112 24.07 143.958 24.07H139.916C139.748 24.07 139.609 24.014 139.497 23.8881C139.385 23.7623 139.315 23.6224 139.315 23.4686V17.8602L135.539 23.5525C135.315 23.8881 135.007 24.07 134.63 24.07H131.091C130.923 24.07 130.783 24.014 130.672 23.8881C130.56 23.7623 130.49 23.6224 130.49 23.4686V9.04898C130.49 8.88115 130.546 8.74129 130.672 8.6294C130.783 8.50352 130.923 8.44758 131.091 8.44758Z" fill="white"/>
<path d="M148.07 8.44727H161.665C161.833 8.44727 161.972 8.50321 162.084 8.62908C162.196 8.74097 162.266 8.89482 162.266 9.04866V23.4822C162.266 23.6501 162.21 23.7899 162.084 23.9018C161.972 24.0277 161.819 24.0836 161.665 24.0836H157.287C157.119 24.0836 156.979 24.0277 156.868 23.9018C156.756 23.7759 156.686 23.6361 156.686 23.4822V13.3564H153.063V23.4822C153.063 23.6501 153.007 23.7899 152.882 23.9018C152.77 24.0277 152.616 24.0836 152.462 24.0836H148.084C147.916 24.0836 147.777 24.0277 147.665 23.9158C147.553 23.8039 147.483 23.664 147.483 23.4822V9.04866C147.483 8.88083 147.539 8.74097 147.665 8.62908C147.763 8.50321 147.902 8.44727 148.07 8.44727Z" fill="white"/>
<path d="M24.0977 11.3566C24.0977 8.2797 22.9229 5.59438 20.9788 3.62235C20.5592 3.53844 19.4543 3.37061 18.0697 3.37061C16.3075 3.37061 14.0837 3.66431 12.2515 4.83914C10.5452 5.93005 9.42635 7.62235 8.92285 9.88809C9.60817 8.78319 10.825 8.05592 12.2096 8.05592C14.3494 8.05592 16.0697 9.79018 16.0697 11.9161C16.0697 14.0559 14.3354 15.7762 12.2096 15.7762C10.9229 15.7762 9.776 15.1468 9.0767 14.1678C10.2795 18.3496 14.2655 21.8601 17.1746 23.944C17.3005 24.0279 17.4124 24.1258 17.5382 24.1958C17.5942 24.1258 17.6641 24.0559 17.7201 23.986C20.9508 20.4615 24.0977 15.2727 24.0977 11.3566Z" fill="white"/>
<path d="M13.1467 22.0837C8.81105 18.0418 6.9649 13.776 7.81804 9.77602C8.3635 7.14665 9.6642 5.16063 11.6642 3.8879C14.2516 2.23755 17.3985 2.13965 19.4125 2.2935C19.5383 2.37741 19.6502 2.46133 19.7761 2.55923C19.6642 2.47532 19.5523 2.37741 19.4264 2.2935C17.4824 0.866925 15.0208 0.0557361 12.0558 0.0837082C8.90895 0.0557361 6.34951 0.964827 4.34951 2.54525C1.70615 4.55923 0.027832 7.67811 0.027832 11.3564C0.027832 15.2585 3.1607 20.4613 6.39147 23.9858C8.20965 26.0697 9.9579 27.4963 11.4684 27.832C11.6782 27.8879 11.874 27.9159 12.0418 27.9019H12.0558C12.2376 27.9019 12.4194 27.8739 12.6292 27.832C13.874 27.5522 15.2726 26.5313 16.7551 25.0208C16.7411 25.0208 16.7411 25.0068 16.7271 25.0068C15.6502 24.2236 14.3775 23.2445 13.1467 22.0837Z" fill="white"/>
<path d="M24.0982 11.3566C24.0982 8.2797 22.9233 5.59438 20.9793 3.62235C20.5597 3.53844 19.4548 3.37061 18.0702 3.37061C16.308 3.37061 14.0842 3.66431 12.252 4.83914C10.5457 5.93005 9.42684 7.62235 8.92334 9.88809C9.60865 8.78319 10.8254 8.05592 12.2101 8.05592C14.3499 8.05592 16.0702 9.79019 16.0702 11.9161C16.0702 14.0559 14.3359 15.7762 12.2101 15.7762C10.9233 15.7762 9.77649 15.1468 9.07719 14.1678C10.28 18.3496 14.266 21.8601 17.1751 23.944C17.301 24.0279 17.4129 24.1258 17.5387 24.1958C17.5947 24.1258 17.6646 24.0559 17.7205 23.986C20.9513 20.4615 24.0982 15.2727 24.0982 11.3566Z" fill="white"/>
<path d="M13.1472 22.0837C8.81154 18.0418 6.96538 13.776 7.81853 9.77602C8.36399 7.14665 9.66469 5.16063 11.6647 3.8879C14.2521 2.23755 17.399 2.13965 19.4129 2.2935C19.5388 2.37741 19.6507 2.46133 19.7766 2.55923C19.6647 2.47532 19.5528 2.37741 19.4269 2.2935C17.4829 0.866925 15.0213 0.0557361 12.0563 0.0837082C8.90944 0.0557361 6.35 0.964827 4.35 2.54525C1.70664 4.55923 0.0283203 7.67811 0.0283203 11.3564C0.0283203 15.2585 3.16119 20.4613 6.39196 23.9858C8.21014 26.0697 9.95839 27.4963 11.4689 27.832C11.6787 27.8879 11.8745 27.9159 12.0423 27.9019H12.0563C12.2381 27.9019 12.4199 27.8739 12.6297 27.832C13.8745 27.5522 15.2731 26.5313 16.7556 25.0208C16.7416 25.0208 16.7416 25.0068 16.7276 25.0068C15.6507 24.2236 14.378 23.2445 13.1472 22.0837Z" fill="white"/>
<path d="M24.0982 11.3566C24.0982 8.2797 22.9233 5.59438 20.9793 3.62235C20.5597 3.53844 19.4548 3.37061 18.0702 3.37061C16.308 3.37061 14.0842 3.66431 12.252 4.83914C10.5457 5.93005 9.42684 7.62235 8.92334 9.88809C9.60865 8.78319 10.8254 8.05592 12.2101 8.05592C14.3499 8.05592 16.0702 9.79019 16.0702 11.9161C16.0702 14.0559 14.3359 15.7762 12.2101 15.7762C10.9233 15.7762 9.77649 15.1468 9.07719 14.1678C10.28 18.3496 14.266 21.8601 17.1751 23.944C17.301 24.0279 17.4129 24.1258 17.5387 24.1958C17.5947 24.1258 17.6646 24.0559 17.7205 23.986C20.9513 20.4615 24.0982 15.2727 24.0982 11.3566Z" fill="white"/>
<path d="M13.1472 22.0837C8.81154 18.0418 6.96538 13.776 7.81853 9.77602C8.36399 7.14665 9.66469 5.16063 11.6647 3.8879C14.2521 2.23755 17.399 2.13965 19.4129 2.2935C19.5388 2.37741 19.6507 2.46133 19.7766 2.55923C19.6647 2.47532 19.5528 2.37741 19.4269 2.2935C17.4829 0.866925 15.0213 0.0557361 12.0563 0.0837082C8.90944 0.0557361 6.35 0.964827 4.35 2.54525C1.70664 4.55923 0.0283203 7.67811 0.0283203 11.3564C0.0283203 15.2585 3.16119 20.4613 6.39196 23.9858C8.21014 26.0697 9.95839 27.4963 11.4689 27.832C11.6787 27.8879 11.8745 27.9159 12.0423 27.9019H12.0563C12.2381 27.9019 12.4199 27.8739 12.6297 27.832C13.8745 27.5522 15.2731 26.5313 16.7556 25.0208C16.7416 25.0208 16.7416 25.0068 16.7276 25.0068C15.6507 24.2236 14.378 23.2445 13.1472 22.0837Z" fill="white"/>
</g>
<defs>
<clipPath id="clip0_776_41689">
<rect width="162.252" height="28" fill="white"/>
</clipPath>
</defs>
</svg>
