<svg width="163" height="28" viewBox="0 0 163 28" fill="none" xmlns="http://www.w3.org/2000/svg">
<g clip-path="url(#clip0_776_42031)">
<path d="M46.2517 24.4756H41.2167C40.4894 24.4756 40.1398 24.084 39.972 23.7623L37.9999 20.2239V23.4966C37.9999 23.7623 37.902 24.0001 37.7062 24.1819C37.5104 24.3777 37.2727 24.4756 37.0209 24.4756H32.7971C32.5314 24.4756 32.2936 24.3777 32.1118 24.1819C31.916 23.9861 31.8181 23.7484 31.8181 23.4966V9.2029C31.8181 8.93716 31.916 8.6994 32.1118 8.51758C32.3076 8.33577 32.5454 8.22388 32.7971 8.22388H37.0209C37.2866 8.22388 37.5244 8.32178 37.7062 8.51758C37.902 8.6994 37.9999 8.95115 37.9999 9.2029V12.112L39.7762 8.90919C39.93 8.58751 40.2797 8.22388 40.9929 8.22388H45.888C46.1258 8.22388 46.3356 8.30779 46.5034 8.47563C46.7132 8.68542 46.7552 8.90919 46.7552 9.04905C46.7552 9.23087 46.7132 9.38472 46.6293 9.52458L42.7692 16.0001L47.0069 23.147C47.0908 23.2728 47.1328 23.4407 47.1328 23.6225C47.1328 23.7763 47.0908 23.9861 46.8811 24.1959C46.6992 24.3777 46.4894 24.4756 46.2517 24.4756ZM37.2307 17.3008L40.6433 23.3987C40.7272 23.5525 40.8531 23.7064 41.2167 23.7064H46.2657C46.2936 23.7064 46.3076 23.7064 46.3356 23.6784C46.3636 23.6505 46.3636 23.6365 46.3636 23.6365C46.3636 23.5945 46.3496 23.5665 46.3496 23.5525L41.8741 16.0141L45.972 9.13297C45.972 9.13297 45.9859 9.105 45.9859 9.04905C45.9859 9.04905 45.986 9.03507 45.958 9.00709C45.93 8.97912 45.916 8.97912 45.888 8.97912H41.0069C40.6433 8.97912 40.5314 9.11898 40.4615 9.25884L40.4475 9.27283L37.2307 15.0491V9.2029C37.2307 9.14695 37.2167 9.105 37.1608 9.04905C37.1188 9.00709 37.0769 8.97912 37.0069 8.97912H32.7831C32.7272 8.97912 32.6713 8.99311 32.6293 9.04905C32.5873 9.105 32.5594 9.13297 32.5594 9.2029V23.4966C32.5594 23.5525 32.5734 23.6085 32.6293 23.6505C32.6852 23.6924 32.7132 23.7204 32.7831 23.7204H37.0069C37.0629 23.7204 37.1188 23.7064 37.1608 23.6505C37.2027 23.6085 37.2307 23.5665 37.2307 23.4966V17.3008V17.3008Z" fill="white"/>
<path d="M52.028 24.4756H49.2588C48.993 24.4756 48.7553 24.3777 48.5734 24.1819C48.3776 23.9861 48.2797 23.7484 48.2797 23.4966V19.9581C48.2797 19.6924 48.3776 19.4546 48.5734 19.2728C48.7692 19.091 48.993 18.9791 49.2588 18.9791H51.4685C51.8322 18.9791 52.056 18.9512 52.1818 18.9232L47.1748 9.44066L47.1609 9.41269C47.1329 9.32877 47.1189 9.23087 47.1189 9.13297V9.07702C47.2028 8.53157 47.5525 8.22388 48.042 8.22388H52.6574C52.979 8.22388 53.4266 8.34975 53.7063 8.97912L55.3846 12.5176L56.6993 9.00709C56.9091 8.5036 57.3007 8.22388 57.8042 8.22388H62.3776C62.6014 8.22388 62.8112 8.30779 62.993 8.47563C63.2168 8.68542 63.2727 8.92318 63.2727 9.07702C63.2727 9.25884 63.2588 9.37073 63.2168 9.45465L58.8112 19.7344C58.014 21.6085 57.1748 22.8532 56.2657 23.4966C55.3846 24.1539 53.986 24.4756 52.028 24.4756ZM49.2588 19.7344C49.2028 19.7344 49.1469 19.7484 49.1049 19.8043C49.063 19.8602 49.035 19.8882 49.035 19.9581V23.4966C49.035 23.5525 49.049 23.6085 49.1049 23.6505C49.1609 23.6924 49.1888 23.7204 49.2588 23.7204H52.028C53.7902 23.7204 55.0909 23.4407 55.8602 22.8812C56.6434 22.3218 57.4126 21.1609 58.1539 19.4407L62.5455 9.18891C62.5455 9.17493 62.5455 9.14695 62.5455 9.09101C62.5455 9.09101 62.5315 9.07702 62.5175 9.04905C62.4755 9.00709 62.4476 9.00709 62.4196 9.00709H57.8462C57.6783 9.00709 57.5525 9.06304 57.4406 9.3008L55.4965 14.4896L53.049 9.31479C52.9091 9.00709 52.7553 9.00709 52.6853 9.00709H48.056C47.986 9.00709 47.9161 9.00709 47.8881 9.17493L53.0909 19.0351L53.035 19.1889C52.8532 19.6784 52.1399 19.7484 51.4546 19.7484L49.2588 19.7344Z" fill="white"/>
<path d="M78.5454 24.4756H74.2097C73.944 24.4756 73.7062 24.3777 73.5244 24.1819C73.3426 23.9861 73.2307 23.7484 73.2307 23.4966V13.8602H70.4055V23.4966C70.4055 23.7623 70.3076 24.0001 70.1118 24.1819C69.916 24.3777 69.6783 24.4756 69.4265 24.4756H65.0908C64.8391 24.4756 64.6013 24.3777 64.4055 24.2099C64.2097 24.0281 64.1118 23.7763 64.1118 23.4966V9.2029C64.1118 8.93716 64.2097 8.6994 64.4055 8.51758C64.6013 8.33577 64.8251 8.22388 65.0908 8.22388H78.5314C78.7971 8.22388 79.0349 8.32178 79.2167 8.51758C79.3985 8.6994 79.5104 8.93716 79.5104 9.2029V23.4966C79.5104 23.7623 79.4125 24.0001 79.2167 24.1819C79.0489 24.3637 78.8111 24.4756 78.5454 24.4756ZM69.6503 13.091H73.9859V23.4966C73.9859 23.5525 73.9999 23.6085 74.0559 23.6505C74.1118 23.6924 74.1398 23.7204 74.2097 23.7204H78.5454C78.6013 23.7204 78.6573 23.7064 78.6992 23.6505C78.7412 23.6085 78.7692 23.5665 78.7692 23.4966V9.2029C78.7692 9.14695 78.7552 9.105 78.6992 9.04905C78.6573 9.00709 78.6013 8.97912 78.5454 8.97912H65.1048C65.0489 8.97912 64.9929 8.99311 64.951 9.04905C64.909 9.105 64.881 9.13297 64.881 9.2029V23.4966C64.881 23.5805 64.909 23.6225 64.937 23.6505C64.9789 23.6924 65.0349 23.7064 65.0908 23.7064H69.4265C69.4824 23.7064 69.5384 23.6924 69.5803 23.6365C69.6223 23.5945 69.6503 23.5525 69.6503 23.4826V13.091Z" fill="white"/>
<path d="M95.3565 24.4756H91.3565C91.0908 24.4756 90.853 24.3777 90.6712 24.1819C90.4894 23.9861 90.3775 23.7484 90.3775 23.4966V19.2169L87.3425 23.8043C87.0488 24.2518 86.6292 24.4896 86.1118 24.4896H82.6153C82.3495 24.4896 82.1118 24.3917 81.9299 24.1959C81.7481 24.0001 81.6362 23.7623 81.6362 23.5106V9.2029C81.6362 8.93716 81.7341 8.6994 81.9299 8.51758C82.1257 8.33577 82.3495 8.22388 82.6153 8.22388H86.6152C86.881 8.22388 87.1187 8.32178 87.3006 8.51758C87.4824 8.6994 87.5943 8.93716 87.5943 9.2029V13.8882L90.6292 8.92318C90.881 8.47563 91.3145 8.23786 91.86 8.23786H95.3565C95.6222 8.23786 95.86 8.33577 96.0418 8.53157C96.2236 8.71339 96.3355 8.96514 96.3355 9.21688V23.4966C96.3355 23.7623 96.2376 24.0001 96.0418 24.1819C95.86 24.3637 95.6222 24.4756 95.3565 24.4756ZM91.1327 16.6714V23.4966C91.1327 23.5525 91.1467 23.5945 91.2027 23.6505C91.2446 23.6924 91.2866 23.7204 91.3565 23.7204H95.3565C95.4124 23.7204 95.4684 23.7064 95.5104 23.6505C95.5523 23.5945 95.5803 23.5665 95.5803 23.4966V9.2029C95.5803 9.14695 95.5663 9.09101 95.5104 9.04905C95.4684 9.00709 95.4124 8.97912 95.3565 8.97912H91.86C91.5803 8.97912 91.4125 9.07702 91.2866 9.3008L86.839 16.6015V9.2029C86.839 9.14695 86.825 9.105 86.7691 9.04905C86.7271 9.00709 86.6712 8.97912 86.6152 8.97912H82.6153C82.5593 8.97912 82.5034 8.99311 82.4614 9.04905C82.4194 9.105 82.3915 9.13297 82.3915 9.2029V23.4966C82.3915 23.5525 82.4055 23.6085 82.4614 23.6505C82.5034 23.6924 82.5453 23.7204 82.6153 23.7204H86.1118C86.3635 23.7204 86.5453 23.6225 86.6992 23.3847L91.1327 16.6714Z" fill="white"/>
<path d="M98.6573 8.44775H111.748C111.916 8.44775 112.056 8.5037 112.168 8.62957C112.28 8.74146 112.35 8.89531 112.35 9.04915V12.6436C112.35 12.8114 112.294 12.9513 112.168 13.0631C112.056 13.175 111.902 13.245 111.748 13.245H108.042V23.4827C108.042 23.6505 107.986 23.7904 107.86 23.9023C107.748 24.0282 107.594 24.0841 107.441 24.0841H102.965C102.797 24.0841 102.657 24.0282 102.545 23.9023C102.434 23.7764 102.364 23.6366 102.364 23.4827V13.245H98.6573C98.4895 13.245 98.3496 13.189 98.2377 13.0631C98.1258 12.9513 98.0559 12.7974 98.0559 12.6436V9.04915C98.0559 8.88132 98.1119 8.74146 98.2377 8.62957C98.3636 8.5037 98.5035 8.44775 98.6573 8.44775Z" fill="white"/>
<path d="M115.091 8.44775H121.748C123.888 8.44775 125.566 8.90929 126.783 9.83237C127.986 10.7554 128.587 12.1121 128.587 13.9163C128.587 15.7205 127.986 17.0492 126.783 17.9163C125.58 18.7834 123.902 19.217 121.748 19.217H120.294V23.4827C120.294 23.6505 120.238 23.7904 120.112 23.9023C120 24.0282 119.846 24.0841 119.692 24.0841H115.091C114.923 24.0841 114.783 24.0282 114.671 23.9023C114.559 23.7764 114.49 23.6366 114.49 23.4827V9.04915C114.49 8.88132 114.545 8.74146 114.671 8.62957C114.783 8.5037 114.923 8.44775 115.091 8.44775ZM120.182 12.6016V15.0771H121.748C122.014 15.0771 122.252 14.9792 122.462 14.7694C122.671 14.5596 122.769 14.2799 122.769 13.9023C122.769 13.5247 122.685 13.217 122.517 12.9652C122.35 12.7135 122.098 12.5876 121.734 12.5876C121.748 12.6016 120.182 12.6016 120.182 12.6016Z" fill="white"/>
<path d="M131.091 8.44758H135.133C135.301 8.44758 135.441 8.50352 135.552 8.6294C135.664 8.74129 135.734 8.89513 135.734 9.04898V15.1469L139.51 8.95108C139.706 8.61541 140.014 8.43359 140.42 8.43359H143.958C144.126 8.43359 144.266 8.48954 144.378 8.61541C144.49 8.7273 144.559 8.88115 144.559 9.03499V23.4686C144.559 23.6364 144.503 23.7763 144.378 23.8881C144.266 24.014 144.112 24.07 143.958 24.07H139.916C139.748 24.07 139.608 24.014 139.497 23.8881C139.385 23.7623 139.315 23.6224 139.315 23.4686V17.8602L135.538 23.5525C135.315 23.8881 135.007 24.07 134.629 24.07H131.091C130.923 24.07 130.783 24.014 130.671 23.8881C130.559 23.7623 130.49 23.6224 130.49 23.4686V9.04898C130.49 8.88115 130.545 8.74129 130.671 8.6294C130.783 8.50352 130.923 8.44758 131.091 8.44758Z" fill="white"/>
<path d="M148.07 8.44775H161.664C161.832 8.44775 161.972 8.5037 162.084 8.62957C162.196 8.74146 162.266 8.89531 162.266 9.04915V23.4827C162.266 23.6505 162.21 23.7904 162.084 23.9023C161.972 24.0282 161.818 24.0841 161.664 24.0841H157.287C157.119 24.0841 156.979 24.0282 156.867 23.9023C156.755 23.7764 156.685 23.6366 156.685 23.4827V13.3568H153.063V23.4827C153.063 23.6505 153.007 23.7904 152.881 23.9023C152.769 24.0282 152.615 24.0841 152.461 24.0841H148.084C147.916 24.0841 147.776 24.0282 147.664 23.9163C147.552 23.8044 147.482 23.6645 147.482 23.4827V9.04915C147.482 8.88132 147.538 8.74146 147.664 8.62957C147.762 8.5037 147.902 8.44775 148.07 8.44775Z" fill="white"/>
<path d="M24.0979 11.3566C24.0979 8.2797 22.9231 5.59438 20.979 3.62235C20.5595 3.53844 19.4546 3.37061 18.0699 3.37061C16.3077 3.37061 14.0839 3.66431 12.2518 4.83914C10.5455 5.93005 9.42659 7.62235 8.9231 9.88809C9.60841 8.78319 10.8252 8.05592 12.2098 8.05592C14.3497 8.05592 16.0699 9.79018 16.0699 11.9161C16.0699 14.0559 14.3357 15.7762 12.2098 15.7762C10.9231 15.7762 9.77624 15.1468 9.07694 14.1678C10.2797 18.3496 14.2658 21.8601 17.1748 23.944C17.3007 24.0279 17.4126 24.1258 17.5385 24.1958C17.5944 24.1258 17.6644 24.0559 17.7203 23.986C20.9511 20.4615 24.0979 15.2727 24.0979 11.3566Z" fill="white"/>
<path d="M13.147 22.084C8.8113 18.042 6.96514 13.7763 7.81829 9.77626C8.36374 7.14689 9.66444 5.16088 11.6644 3.88815C14.2519 2.2378 17.3987 2.1399 19.4127 2.29374C19.5386 2.37766 19.6505 2.46157 19.7763 2.55948C19.6644 2.47556 19.5526 2.37766 19.4267 2.29374C17.4826 0.867169 15.0211 0.0559803 12.0561 0.0839523C8.9092 0.0559803 6.34976 0.965071 4.34976 2.54549C1.7064 4.55948 0.0280762 7.67836 0.0280762 11.3567C0.0280762 15.2588 3.16094 20.4616 6.39171 23.9861C8.2099 26.07 9.95815 27.4965 11.4686 27.8322C11.6784 27.8881 11.8742 27.9161 12.0421 27.9021H12.0561C12.2379 27.9021 12.4197 27.8742 12.6295 27.8322C13.8742 27.5525 15.2728 26.5315 16.7554 25.021C16.7414 25.021 16.7414 25.007 16.7274 25.007C15.6505 24.2238 14.3777 23.2448 13.147 22.084Z" fill="white"/>
<path d="M24.0979 11.3566C24.0979 8.2797 22.9231 5.59438 20.979 3.62235C20.5595 3.53844 19.4546 3.37061 18.0699 3.37061C16.3077 3.37061 14.0839 3.66431 12.2518 4.83914C10.5455 5.93005 9.42659 7.62235 8.9231 9.88809C9.60841 8.78319 10.8252 8.05592 12.2098 8.05592C14.3497 8.05592 16.0699 9.79019 16.0699 11.9161C16.0699 14.0559 14.3357 15.7762 12.2098 15.7762C10.9231 15.7762 9.77624 15.1468 9.07694 14.1678C10.2797 18.3496 14.2658 21.8601 17.1748 23.944C17.3007 24.0279 17.4126 24.1258 17.5385 24.1958C17.5944 24.1258 17.6644 24.0559 17.7203 23.986C20.9511 20.4615 24.0979 15.2727 24.0979 11.3566Z" fill="white"/>
<path d="M13.147 22.084C8.8113 18.042 6.96514 13.7763 7.81829 9.77626C8.36374 7.14689 9.66444 5.16088 11.6644 3.88815C14.2519 2.2378 17.3987 2.1399 19.4127 2.29374C19.5386 2.37766 19.6505 2.46157 19.7763 2.55948C19.6644 2.47556 19.5526 2.37766 19.4267 2.29374C17.4826 0.867169 15.0211 0.0559803 12.0561 0.0839523C8.9092 0.0559803 6.34976 0.965071 4.34976 2.54549C1.7064 4.55948 0.0280762 7.67836 0.0280762 11.3567C0.0280762 15.2588 3.16094 20.4616 6.39171 23.9861C8.2099 26.07 9.95815 27.4965 11.4686 27.8322C11.6784 27.8881 11.8742 27.9161 12.0421 27.9021H12.0561C12.2379 27.9021 12.4197 27.8742 12.6295 27.8322C13.8742 27.5525 15.2728 26.5315 16.7554 25.021C16.7414 25.021 16.7414 25.007 16.7274 25.007C15.6505 24.2238 14.3777 23.2448 13.147 22.084Z" fill="white"/>
<path d="M24.0979 11.3566C24.0979 8.2797 22.9231 5.59438 20.979 3.62235C20.5595 3.53844 19.4546 3.37061 18.0699 3.37061C16.3077 3.37061 14.0839 3.66431 12.2518 4.83914C10.5455 5.93005 9.42659 7.62235 8.9231 9.88809C9.60841 8.78319 10.8252 8.05592 12.2098 8.05592C14.3497 8.05592 16.0699 9.79019 16.0699 11.9161C16.0699 14.0559 14.3357 15.7762 12.2098 15.7762C10.9231 15.7762 9.77624 15.1468 9.07694 14.1678C10.2797 18.3496 14.2658 21.8601 17.1748 23.944C17.3007 24.0279 17.4126 24.1258 17.5385 24.1958C17.5944 24.1258 17.6644 24.0559 17.7203 23.986C20.9511 20.4615 24.0979 15.2727 24.0979 11.3566Z" fill="white"/>
<path d="M13.147 22.084C8.8113 18.042 6.96514 13.7763 7.81829 9.77626C8.36374 7.14689 9.66444 5.16088 11.6644 3.88815C14.2519 2.2378 17.3987 2.1399 19.4127 2.29374C19.5386 2.37766 19.6505 2.46157 19.7763 2.55948C19.6644 2.47556 19.5526 2.37766 19.4267 2.29374C17.4826 0.867169 15.0211 0.0559803 12.0561 0.0839523C8.9092 0.0559803 6.34976 0.965071 4.34976 2.54549C1.7064 4.55948 0.0280762 7.67836 0.0280762 11.3567C0.0280762 15.2588 3.16094 20.4616 6.39171 23.9861C8.2099 26.07 9.95815 27.4965 11.4686 27.8322C11.6784 27.8881 11.8742 27.9161 12.0421 27.9021H12.0561C12.2379 27.9021 12.4197 27.8742 12.6295 27.8322C13.8742 27.5525 15.2728 26.5315 16.7554 25.021C16.7414 25.021 16.7414 25.007 16.7274 25.007C15.6505 24.2238 14.3777 23.2448 13.147 22.084Z" fill="white"/>
</g>
<defs>
<clipPath id="clip0_776_42031">
<rect width="162.252" height="28" fill="white"/>
</clipPath>
</defs>
</svg>
