<svg width="163" height="28" viewBox="0 0 163 28" fill="none" xmlns="http://www.w3.org/2000/svg">
<g clip-path="url(#clip0_776_30713)">
<path d="M46.2519 24.4756H41.217C40.4897 24.4756 40.14 24.084 39.9722 23.7623L38.0002 20.2239V23.4966C38.0002 23.7623 37.9023 24.0001 37.7065 24.1819C37.5107 24.3777 37.2729 24.4756 37.0212 24.4756H32.7974C32.5316 24.4756 32.2939 24.3777 32.1121 24.1819C31.9163 23.9861 31.8184 23.7484 31.8184 23.4966V9.2029C31.8184 8.93716 31.9163 8.6994 32.1121 8.51758C32.3079 8.33577 32.5456 8.22388 32.7974 8.22388H37.0212C37.2869 8.22388 37.5247 8.32178 37.7065 8.51758C37.9023 8.6994 38.0002 8.95115 38.0002 9.2029V12.112L39.7764 8.90919C39.9302 8.58751 40.2799 8.22388 40.9932 8.22388H45.8883C46.1261 8.22388 46.3358 8.30779 46.5037 8.47563C46.7135 8.68542 46.7554 8.90919 46.7554 9.04905C46.7554 9.23087 46.7135 9.38472 46.6296 9.52458L42.7694 16.0001L47.0072 23.147C47.0911 23.2728 47.133 23.4407 47.133 23.6225C47.133 23.7763 47.0911 23.9861 46.8813 24.1959C46.6995 24.3777 46.4897 24.4756 46.2519 24.4756ZM37.2309 17.3008L40.6435 23.3987C40.7275 23.5525 40.8533 23.7064 41.217 23.7064H46.2659C46.2939 23.7064 46.3079 23.7064 46.3358 23.6784C46.3638 23.6505 46.3638 23.6365 46.3638 23.6365C46.3638 23.5945 46.3498 23.5665 46.3498 23.5525L41.8743 16.0141L45.9722 9.13297C45.9722 9.13297 45.9862 9.105 45.9862 9.04905C45.9862 9.04905 45.9862 9.03507 45.9582 9.00709C45.9303 8.97912 45.9163 8.97912 45.8883 8.97912H41.0072C40.6435 8.97912 40.5316 9.11898 40.4617 9.25884L40.4477 9.27283L37.2309 15.0491V9.2029C37.2309 9.14695 37.217 9.105 37.161 9.04905C37.1191 9.00709 37.0771 8.97912 37.0072 8.97912H32.7834C32.7274 8.97912 32.6715 8.99311 32.6295 9.04905C32.5876 9.105 32.5596 9.13297 32.5596 9.2029V23.4966C32.5596 23.5525 32.5736 23.6085 32.6295 23.6505C32.6855 23.6924 32.7135 23.7204 32.7834 23.7204H37.0072C37.0631 23.7204 37.1191 23.7064 37.161 23.6505C37.203 23.6085 37.2309 23.5665 37.2309 23.4966V17.3008V17.3008Z" fill="white"/>
<path d="M52.0282 24.4756H49.259C48.9933 24.4756 48.7555 24.3777 48.5737 24.1819C48.3779 23.9861 48.28 23.7484 48.28 23.4966V19.9581C48.28 19.6924 48.3779 19.4546 48.5737 19.2728C48.7695 19.091 48.9933 18.9791 49.259 18.9791H51.4688C51.8324 18.9791 52.0562 18.9512 52.1821 18.9232L47.1751 9.44066L47.1611 9.41269C47.1331 9.32877 47.1191 9.23087 47.1191 9.13297V9.07702C47.2031 8.53157 47.5527 8.22388 48.0422 8.22388H52.6576C52.9793 8.22388 53.4268 8.34975 53.7066 8.97912L55.3849 12.5176L56.6996 9.00709C56.9094 8.5036 57.301 8.22388 57.8045 8.22388H62.3779C62.6017 8.22388 62.8114 8.30779 62.9933 8.47563C63.217 8.68542 63.273 8.92318 63.273 9.07702C63.273 9.25884 63.259 9.37073 63.217 9.45465L58.8114 19.7344C58.0142 21.6085 57.1751 22.8532 56.266 23.4966C55.3849 24.1539 53.9863 24.4756 52.0282 24.4756ZM49.259 19.7344C49.2031 19.7344 49.1471 19.7484 49.1052 19.8043C49.0632 19.8602 49.0352 19.8882 49.0352 19.9581V23.4966C49.0352 23.5525 49.0492 23.6085 49.1052 23.6505C49.1611 23.6924 49.1891 23.7204 49.259 23.7204H52.0282C53.7905 23.7204 55.0912 23.4407 55.8604 22.8812C56.6436 22.3218 57.4128 21.1609 58.1541 19.4407L62.5457 9.18891C62.5457 9.17493 62.5457 9.14695 62.5457 9.09101C62.5457 9.09101 62.5317 9.07702 62.5177 9.04905C62.4758 9.00709 62.4478 9.00709 62.4198 9.00709H57.8464C57.6786 9.00709 57.5527 9.06304 57.4408 9.3008L55.4968 14.4896L53.0492 9.31479C52.9093 9.00709 52.7555 9.00709 52.6856 9.00709H48.0562C47.9863 9.00709 47.9163 9.00709 47.8884 9.17493L53.0912 19.0351L53.0352 19.1889C52.8534 19.6784 52.1401 19.7484 51.4548 19.7484L49.259 19.7344Z" fill="white"/>
<path d="M78.5449 24.4756H74.2092C73.9435 24.4756 73.7057 24.3777 73.5239 24.1819C73.3421 23.9861 73.2302 23.7484 73.2302 23.4966V13.8602H70.405V23.4966C70.405 23.7623 70.3071 24.0001 70.1113 24.1819C69.9155 24.3777 69.6778 24.4756 69.426 24.4756H65.0903C64.8386 24.4756 64.6008 24.3777 64.405 24.2099C64.2092 24.0281 64.1113 23.7763 64.1113 23.4966V9.2029C64.1113 8.93716 64.2092 8.6994 64.405 8.51758C64.6008 8.33577 64.8246 8.22388 65.0903 8.22388H78.5309C78.7966 8.22388 79.0344 8.32178 79.2162 8.51758C79.398 8.6994 79.5099 8.93716 79.5099 9.2029V23.4966C79.5099 23.7623 79.412 24.0001 79.2162 24.1819C79.0484 24.3637 78.8106 24.4756 78.5449 24.4756ZM69.6498 13.091H73.9855V23.4966C73.9855 23.5525 73.9994 23.6085 74.0554 23.6505C74.1113 23.6924 74.1393 23.7204 74.2092 23.7204H78.5449C78.6008 23.7204 78.6568 23.7064 78.6987 23.6505C78.7407 23.6085 78.7687 23.5665 78.7687 23.4966V9.2029C78.7687 9.14695 78.7547 9.105 78.6987 9.04905C78.6568 9.00709 78.6008 8.97912 78.5449 8.97912H65.1043C65.0484 8.97912 64.9924 8.99311 64.9505 9.04905C64.9085 9.105 64.8806 9.13297 64.8806 9.2029V23.4966C64.8806 23.5805 64.9085 23.6225 64.9365 23.6505C64.9785 23.6924 65.0344 23.7064 65.0903 23.7064H69.426C69.482 23.7064 69.5379 23.6924 69.5799 23.6365C69.6218 23.5945 69.6498 23.5525 69.6498 23.4826V13.091Z" fill="white"/>
<path d="M95.357 24.4756H91.357C91.0913 24.4756 90.8535 24.3777 90.6717 24.1819C90.4899 23.9861 90.378 23.7484 90.378 23.4966V19.2169L87.343 23.8043C87.0493 24.2518 86.6297 24.4896 86.1122 24.4896H82.6157C82.35 24.4896 82.1122 24.3917 81.9304 24.1959C81.7486 24.0001 81.6367 23.7623 81.6367 23.5106V9.2029C81.6367 8.93716 81.7346 8.6994 81.9304 8.51758C82.1262 8.33577 82.35 8.22388 82.6157 8.22388H86.6157C86.8815 8.22388 87.1192 8.32178 87.3011 8.51758C87.4829 8.6994 87.5948 8.93716 87.5948 9.2029V13.8882L90.6297 8.92318C90.8815 8.47563 91.315 8.23786 91.8605 8.23786H95.357C95.6227 8.23786 95.8605 8.33577 96.0423 8.53157C96.2241 8.71339 96.336 8.96514 96.336 9.21688V23.4966C96.336 23.7623 96.2381 24.0001 96.0423 24.1819C95.8605 24.3637 95.6227 24.4756 95.357 24.4756ZM91.1332 16.6714V23.4966C91.1332 23.5525 91.1472 23.5945 91.2031 23.6505C91.2451 23.6924 91.2871 23.7204 91.357 23.7204H95.357C95.4129 23.7204 95.4689 23.7064 95.5108 23.6505C95.5528 23.5945 95.5808 23.5665 95.5808 23.4966V9.2029C95.5808 9.14695 95.5668 9.09101 95.5108 9.04905C95.4689 9.00709 95.4129 8.97912 95.357 8.97912H91.8605C91.5808 8.97912 91.4129 9.07702 91.2871 9.3008L86.8395 16.6015V9.2029C86.8395 9.14695 86.8255 9.105 86.7696 9.04905C86.7276 9.00709 86.6717 8.97912 86.6157 8.97912H82.6157C82.5598 8.97912 82.5038 8.99311 82.4619 9.04905C82.4199 9.105 82.392 9.13297 82.392 9.2029V23.4966C82.392 23.5525 82.4059 23.6085 82.4619 23.6505C82.5038 23.6924 82.5458 23.7204 82.6157 23.7204H86.1122C86.364 23.7204 86.5458 23.6225 86.6997 23.3847L91.1332 16.6714Z" fill="white"/>
<path d="M98.658 8.44775H111.749C111.917 8.44775 112.057 8.5037 112.169 8.62957C112.28 8.74146 112.35 8.89531 112.35 9.04915V12.6436C112.35 12.8114 112.294 12.9513 112.169 13.0631C112.057 13.175 111.903 13.245 111.749 13.245H108.043V23.4827C108.043 23.6505 107.987 23.7904 107.861 23.9023C107.749 24.0282 107.595 24.0841 107.441 24.0841H102.966C102.798 24.0841 102.658 24.0282 102.546 23.9023C102.434 23.7764 102.364 23.6366 102.364 23.4827V13.245H98.658C98.4902 13.245 98.3504 13.189 98.2385 13.0631C98.1266 12.9513 98.0566 12.7974 98.0566 12.6436V9.04915C98.0566 8.88132 98.1126 8.74146 98.2385 8.62957C98.3643 8.5037 98.5042 8.44775 98.658 8.44775Z" fill="white"/>
<path d="M115.092 8.44775H121.749C123.889 8.44775 125.567 8.90929 126.784 9.83237C127.987 10.7554 128.588 12.1121 128.588 13.9163C128.588 15.7205 127.987 17.0492 126.784 17.9163C125.581 18.7834 123.903 19.217 121.749 19.217H120.294V23.4827C120.294 23.6505 120.238 23.7904 120.113 23.9023C120.001 24.0282 119.847 24.0841 119.693 24.0841H115.092C114.924 24.0841 114.784 24.0282 114.672 23.9023C114.56 23.7764 114.49 23.6366 114.49 23.4827V9.04915C114.49 8.88132 114.546 8.74146 114.672 8.62957C114.784 8.5037 114.924 8.44775 115.092 8.44775ZM120.183 12.6016V15.0771H121.749C122.015 15.0771 122.252 14.9792 122.462 14.7694C122.672 14.5596 122.77 14.2799 122.77 13.9023C122.77 13.5247 122.686 13.217 122.518 12.9652C122.35 12.7135 122.099 12.5876 121.735 12.5876C121.749 12.6016 120.183 12.6016 120.183 12.6016Z" fill="white"/>
<path d="M131.092 8.44758H135.134C135.301 8.44758 135.441 8.50352 135.553 8.6294C135.665 8.74129 135.735 8.89513 135.735 9.04898V15.1469L139.511 8.95108C139.707 8.61541 140.015 8.43359 140.42 8.43359H143.959C144.127 8.43359 144.266 8.48954 144.378 8.61541C144.49 8.7273 144.56 8.88115 144.56 9.03499V23.4686C144.56 23.6364 144.504 23.7763 144.378 23.8881C144.266 24.014 144.113 24.07 143.959 24.07H139.917C139.749 24.07 139.609 24.014 139.497 23.8881C139.385 23.7623 139.315 23.6224 139.315 23.4686V17.8602L135.539 23.5525C135.315 23.8881 135.008 24.07 134.63 24.07H131.092C130.924 24.07 130.784 24.014 130.672 23.8881C130.56 23.7623 130.49 23.6224 130.49 23.4686V9.04898C130.49 8.88115 130.546 8.74129 130.672 8.6294C130.784 8.50352 130.924 8.44758 131.092 8.44758Z" fill="white"/>
<path d="M148.07 8.44775H161.664C161.832 8.44775 161.972 8.5037 162.084 8.62957C162.196 8.74146 162.266 8.89531 162.266 9.04915V23.4827C162.266 23.6505 162.21 23.7904 162.084 23.9023C161.972 24.0282 161.818 24.0841 161.664 24.0841H157.287C157.119 24.0841 156.979 24.0282 156.867 23.9023C156.755 23.7764 156.685 23.6366 156.685 23.4827V13.3568H153.063V23.4827C153.063 23.6505 153.007 23.7904 152.881 23.9023C152.769 24.0282 152.615 24.0841 152.461 24.0841H148.084C147.916 24.0841 147.776 24.0282 147.664 23.9163C147.552 23.8044 147.482 23.6645 147.482 23.4827V9.04915C147.482 8.88132 147.538 8.74146 147.664 8.62957C147.762 8.5037 147.902 8.44775 148.07 8.44775Z" fill="white"/>
<path d="M24.0967 11.3566C24.0967 8.2797 22.9219 5.59438 20.9778 3.62235C20.5582 3.53844 19.4533 3.37061 18.0687 3.37061C16.3065 3.37061 14.0827 3.66431 12.2505 4.83914C10.5443 5.93005 9.42537 7.62235 8.92188 9.88809C9.60719 8.78319 10.824 8.05592 12.2086 8.05592C14.3484 8.05592 16.0687 9.79018 16.0687 11.9161C16.0687 14.0559 14.3345 15.7762 12.2086 15.7762C10.9219 15.7762 9.77502 15.1468 9.07572 14.1678C10.2785 18.3496 14.2645 21.8601 17.1736 23.944C17.2995 24.0279 17.4114 24.1258 17.5373 24.1958C17.5932 24.1258 17.6631 24.0559 17.7191 23.986C20.9498 20.4615 24.0967 15.2727 24.0967 11.3566Z" fill="white"/>
<path d="M13.1462 22.084C8.81056 18.042 6.96441 13.7763 7.81756 9.77626C8.36301 7.14689 9.66371 5.16088 11.6637 3.88815C14.2511 2.2378 17.398 2.1399 19.412 2.29374C19.5378 2.37766 19.6497 2.46157 19.7756 2.55948C19.6637 2.47556 19.5518 2.37766 19.4259 2.29374C17.4819 0.867169 15.0204 0.0559803 12.0553 0.0839523C8.90846 0.0559803 6.34902 0.965071 4.34902 2.54549C1.70567 4.55948 0.0273438 7.67836 0.0273438 11.3567C0.0273438 15.2588 3.16021 20.4616 6.39098 23.9861C8.20916 26.07 9.95742 27.4965 11.4679 27.8322C11.6777 27.8881 11.8735 27.9161 12.0413 27.9021H12.0553C12.2371 27.9021 12.419 27.8742 12.6287 27.8322C13.8735 27.5525 15.2721 26.5315 16.7546 25.021C16.7406 25.021 16.7406 25.007 16.7266 25.007C15.6497 24.2238 14.377 23.2448 13.1462 22.084Z" fill="white"/>
<path d="M24.0967 11.3566C24.0967 8.2797 22.9219 5.59438 20.9778 3.62235C20.5582 3.53844 19.4533 3.37061 18.0687 3.37061C16.3065 3.37061 14.0827 3.66431 12.2505 4.83914C10.5443 5.93005 9.42537 7.62235 8.92188 9.88809C9.60719 8.78319 10.824 8.05592 12.2086 8.05592C14.3484 8.05592 16.0687 9.79019 16.0687 11.9161C16.0687 14.0559 14.3345 15.7762 12.2086 15.7762C10.9219 15.7762 9.77502 15.1468 9.07572 14.1678C10.2785 18.3496 14.2645 21.8601 17.1736 23.944C17.2995 24.0279 17.4114 24.1258 17.5373 24.1958C17.5932 24.1258 17.6631 24.0559 17.7191 23.986C20.9498 20.4615 24.0967 15.2727 24.0967 11.3566Z" fill="white"/>
<path d="M13.1462 22.084C8.81056 18.042 6.96441 13.7763 7.81756 9.77626C8.36301 7.14689 9.66371 5.16088 11.6637 3.88815C14.2511 2.2378 17.398 2.1399 19.412 2.29374C19.5378 2.37766 19.6497 2.46157 19.7756 2.55948C19.6637 2.47556 19.5518 2.37766 19.4259 2.29374C17.4819 0.867169 15.0204 0.0559803 12.0553 0.0839523C8.90846 0.0559803 6.34902 0.965071 4.34902 2.54549C1.70567 4.55948 0.0273438 7.67836 0.0273438 11.3567C0.0273438 15.2588 3.16021 20.4616 6.39098 23.9861C8.20916 26.07 9.95742 27.4965 11.4679 27.8322C11.6777 27.8881 11.8735 27.9161 12.0413 27.9021H12.0553C12.2371 27.9021 12.419 27.8742 12.6287 27.8322C13.8735 27.5525 15.2721 26.5315 16.7546 25.021C16.7406 25.021 16.7406 25.007 16.7266 25.007C15.6497 24.2238 14.377 23.2448 13.1462 22.084Z" fill="white"/>
<path d="M24.0967 11.3566C24.0967 8.2797 22.9219 5.59438 20.9778 3.62235C20.5582 3.53844 19.4533 3.37061 18.0687 3.37061C16.3065 3.37061 14.0827 3.66431 12.2505 4.83914C10.5443 5.93005 9.42537 7.62235 8.92188 9.88809C9.60719 8.78319 10.824 8.05592 12.2086 8.05592C14.3484 8.05592 16.0687 9.79019 16.0687 11.9161C16.0687 14.0559 14.3345 15.7762 12.2086 15.7762C10.9219 15.7762 9.77502 15.1468 9.07572 14.1678C10.2785 18.3496 14.2645 21.8601 17.1736 23.944C17.2995 24.0279 17.4114 24.1258 17.5373 24.1958C17.5932 24.1258 17.6631 24.0559 17.7191 23.986C20.9498 20.4615 24.0967 15.2727 24.0967 11.3566Z" fill="white"/>
<path d="M13.1462 22.084C8.81056 18.042 6.96441 13.7763 7.81756 9.77626C8.36301 7.14689 9.66371 5.16088 11.6637 3.88815C14.2511 2.2378 17.398 2.1399 19.412 2.29374C19.5378 2.37766 19.6497 2.46157 19.7756 2.55948C19.6637 2.47556 19.5518 2.37766 19.4259 2.29374C17.4819 0.867169 15.0204 0.0559803 12.0553 0.0839523C8.90846 0.0559803 6.34902 0.965071 4.34902 2.54549C1.70567 4.55948 0.0273438 7.67836 0.0273438 11.3567C0.0273438 15.2588 3.16021 20.4616 6.39098 23.9861C8.20916 26.07 9.95742 27.4965 11.4679 27.8322C11.6777 27.8881 11.8735 27.9161 12.0413 27.9021H12.0553C12.2371 27.9021 12.419 27.8742 12.6287 27.8322C13.8735 27.5525 15.2721 26.5315 16.7546 25.021C16.7406 25.021 16.7406 25.007 16.7266 25.007C15.6497 24.2238 14.377 23.2448 13.1462 22.084Z" fill="white"/>
</g>
<defs>
<clipPath id="clip0_776_30713">
<rect width="162.252" height="28" fill="white"/>
</clipPath>
</defs>
</svg>
