<svg width="24" height="24" viewBox="0 0 24 24" fill="none" xmlns="http://www.w3.org/2000/svg">
<g clip-path="url(#clip0_776_33611)">
<rect width="24" height="24" rx="12" fill="#BED600"/>
<path d="M23.9999 12.0026C23.9999 18.6321 18.6311 24 12.0036 24C5.37522 24 0 18.6321 0 12.0026C0 5.37311 5.37522 0 12.0036 0C18.6312 0 23.9999 5.37311 23.9999 12.0026Z" fill="#BED600"/>
<path d="M11.1291 5.73901C9.2389 5.73901 8.01267 5.84349 7.12503 6.17301C5.63338 6.75408 4.60324 7.97192 4.60324 9.57238C4.60324 10.9054 5.22393 11.8707 7.02021 12.981C8.93681 14.1429 9.31916 14.5269 9.31916 15.227C9.31916 15.9932 8.56842 16.8654 6.63676 16.8654C5.96256 16.8654 4.94707 16.7721 4.29818 16.6133L3.98856 16.5353C3.81584 16.9983 3.42375 18.0936 3.3042 18.4911L3.61078 18.5812C4.19447 18.7674 5.5797 18.9128 6.57216 18.9128C9.87373 18.9128 11.8436 16.9181 11.8436 14.8294C11.8436 13.5459 11.261 12.5705 9.29156 11.3417C8.30367 10.734 7.80025 10.34 7.49451 10.0349C7.2467 9.71648 7.21926 9.4795 7.21926 9.22914C7.21926 8.99012 7.27243 8.7147 7.43 8.51294C7.60043 8.26352 7.91302 8.1046 8.3361 7.97345C8.77095 7.82918 9.57663 7.82537 10.8315 7.82537H11.9999L12.8342 5.7391H11.1291V5.73901ZM19.959 5.73901H14.0877L13.2533 7.8252H15.1994C16.509 7.8252 16.7608 7.797 17.0897 7.797C16.615 8.88302 13.7538 16.174 13.7538 16.174H16.1753C16.1753 16.174 19.7977 7.098 20.1815 6.14643C20.2879 5.93409 20.235 5.73901 19.959 5.73901Z" fill="white"/>
</g>
<defs>
<clipPath id="clip0_776_33611">
<rect width="24" height="24" rx="12" fill="white"/>
</clipPath>
</defs>
</svg>
