<svg width="24" height="24" viewBox="0 0 24 24" fill="none" xmlns="http://www.w3.org/2000/svg">
<rect width="24" height="24" rx="12" fill="#2B3087"/>
<path fill-rule="evenodd" clip-rule="evenodd" d="M15.2853 8.28931C14.4494 8.28931 13.3044 8.28991 13.1497 8.28991C13.042 8.28991 12.9976 8.35207 12.9976 8.35207L7.11332 15.6507C7.079 15.6928 7.08632 15.7361 7.1456 15.7361C7.2806 15.7361 7.82396 15.7361 8.01668 15.7358C8.10404 15.7358 8.11268 15.7124 8.12816 15.6896L9.38072 14.0837C9.38072 14.0837 9.40016 14.0545 9.42644 14.0545C9.44684 14.0545 11.529 14.0542 11.529 14.0542C11.529 14.0542 11.5612 14.0521 11.5549 14.0837C11.5483 14.1153 11.248 15.6583 11.248 15.6583C11.2442 15.6791 11.2501 15.7358 11.3232 15.7358C11.5978 15.7358 13.5751 15.7353 13.8639 15.7353C13.9006 15.7353 13.9135 15.7231 13.9206 15.6877L15.352 8.36599C15.3518 8.36599 15.3775 8.28931 15.2853 8.28931ZM11.6856 13.2949H10.032C10.032 13.2949 10.0214 13.2973 10.0143 13.2872C10.0077 13.2775 10.0202 13.2625 10.0202 13.2625L12.2184 10.4433C12.2184 10.4433 12.2349 10.4213 12.2523 10.4213C12.2697 10.4213 12.2636 10.4457 12.2636 10.4457L11.7124 13.2725C11.7124 13.2725 11.7108 13.2844 11.7054 13.2897C11.7002 13.2949 11.6856 13.2949 11.6856 13.2949Z" fill="white"/>
<path fill-rule="evenodd" clip-rule="evenodd" d="M1.42945 14.8055C1.40857 14.8926 1.45597 14.9664 1.61389 15.0967C1.91149 15.3421 2.79481 15.8747 4.19629 15.8743C6.71953 15.8738 7.63453 14.2428 7.31461 12.8606C7.22893 12.4909 6.75625 10.5783 6.68785 10.3091C6.48901 9.52617 6.86953 8.96217 7.61665 8.96157C8.25541 8.96109 8.65417 9.20337 9.00325 9.42225C9.06889 9.46413 9.11713 9.48693 9.13453 9.41013C9.14485 9.36573 9.25957 8.77053 9.25957 8.77053C9.25957 8.77053 9.29341 8.65521 9.14317 8.57673C8.91109 8.45577 8.33389 8.12865 7.11673 8.12817C4.85389 8.12697 3.89077 9.57945 4.28485 11.1541C4.41085 11.6579 4.91545 13.5439 4.91737 13.9073C4.91761 14.0468 4.99117 15.0097 3.83137 15.0097C2.75437 15.0097 2.01289 14.274 1.76257 14.0195C1.72129 13.977 1.66609 14.0004 1.64029 14.093C1.62697 14.141 1.42945 14.8055 1.42945 14.8055Z" fill="white"/>
<path fill-rule="evenodd" clip-rule="evenodd" d="M14.8112 14.8435C14.7905 14.9307 14.8378 15.0047 14.9959 15.1352C15.2936 15.3802 16.1069 15.8725 17.5086 15.8719C20.0318 15.8715 20.9467 14.2406 20.6264 12.8578C20.5414 12.4886 20.0682 10.5761 19.9999 10.3066C19.8016 9.5235 20.182 8.95962 20.9285 8.95902C21.5675 8.9589 21.9662 9.20106 22.315 9.42006C22.3811 9.46182 22.4292 9.48414 22.4466 9.4077C22.4567 9.36318 22.5715 8.76822 22.5715 8.76822C22.5715 8.76822 22.606 8.65326 22.4552 8.57442C22.2234 8.4531 21.6455 8.12646 20.4294 8.12598C18.1662 8.12454 17.2031 9.57726 17.597 11.1518C17.7232 11.6555 18.2279 13.5412 18.2297 13.9053C18.23 14.0445 18.3038 15.007 17.1437 15.007C16.0662 15.0073 15.3556 14.2973 15.1034 14.0451C15.0474 13.9895 14.9639 14.0101 14.9525 14.0911C14.9456 14.1395 14.8112 14.8435 14.8112 14.8435Z" fill="white"/>
</svg>
