<svg width="39" height="24" viewBox="0 0 39 24" fill="none" xmlns="http://www.w3.org/2000/svg">
<path d="M24.7441 2.56543H14.2441V21.4342H24.7441V2.56543Z" fill="#FF5F00"/>
<path d="M14.911 12C14.9093 10.1828 15.3211 8.38904 16.1152 6.75451C16.9092 5.11998 18.0648 3.68753 19.4943 2.56561C17.724 1.17415 15.598 0.308826 13.3592 0.0685353C11.1204 -0.171756 8.85921 0.222674 6.83399 1.20676C4.80878 2.19084 3.10129 3.72488 1.9067 5.63351C0.712105 7.54213 0.0786133 9.74835 0.0786133 12C0.0786133 14.2516 0.712105 16.4579 1.9067 18.3665C3.10129 20.2751 4.80878 21.8092 6.83399 22.7932C8.85921 23.7773 11.1204 24.1718 13.3592 23.9315C15.598 23.6912 17.724 22.8258 19.4943 21.4344C18.0648 20.3125 16.9093 18.88 16.1152 17.2455C15.3211 15.611 14.9093 13.8172 14.911 12V12Z" fill="#EB001B"/>
<path d="M38.9092 12C38.9093 14.2516 38.2759 16.4578 37.0813 18.3665C35.8868 20.2751 34.1794 21.8091 32.1542 22.7932C30.129 23.7773 27.8678 24.1718 25.6291 23.9315C23.3903 23.6912 21.2643 22.8259 19.4941 21.4344C20.9224 20.3113 22.077 18.8787 22.871 17.2444C23.6649 15.6101 24.0774 13.8169 24.0774 12C24.0774 10.1831 23.6649 8.38988 22.871 6.75561C22.077 5.12134 20.9224 3.68866 19.4941 2.5656C21.2643 1.17415 23.3903 0.30882 25.6291 0.0685322C27.8678 -0.171756 30.129 0.222691 32.1542 1.20679C34.1794 2.19088 35.8868 3.72491 37.0813 5.63354C38.2759 7.54217 38.9093 9.74838 38.9092 12V12Z" fill="#F79E1B"/>
<path d="M37.7644 19.4365V19.0502H37.9201V18.9715H37.5234V19.0502H37.6793V19.4365H37.7644ZM38.5345 19.4365V18.9707H38.4129L38.2731 19.2911L38.1332 18.9707H38.0115V19.4365H38.0974V19.0851L38.2285 19.388H38.3176L38.4487 19.0844V19.4365H38.5345Z" fill="#F79E1B"/>
</svg>
