<svg width="20" height="20" viewBox="0 0 20 20" fill="none" xmlns="http://www.w3.org/2000/svg">
<path d="M4.50029 2.03466C4.83025 2.11843 4.72393 2.0638 9.74291 4.77378C11.0114 5.46221 12.1223 6.04136 12.2066 6.06321C12.3239 6.096 12.4045 6.09599 12.5109 6.06686C12.5952 6.045 13.0865 5.78639 13.6034 5.49499C14.8792 4.77378 16.1624 4.12543 16.562 3.99794C17.2329 3.77939 18.1348 3.68833 18.4611 3.80489C18.758 3.90688 18.9963 4.22013 19 4.50424C19.0036 4.94498 18.5637 5.59334 17.9111 6.10692C17.4602 6.46388 16.3017 7.12681 14.9452 7.81159C14.1753 8.19769 14.003 8.32154 13.86 8.59108C13.7794 8.74042 13.7757 8.78413 13.7537 10.2193C13.739 11.0315 13.7244 12.514 13.7244 13.5157C13.7134 15.6611 13.673 16.9578 13.6107 17.1399C13.5007 17.4459 13.2294 17.6353 12.5769 17.8648C11.9463 18.0833 11.7336 18.0469 11.5503 17.6826C11.4477 17.4787 11.2314 16.6227 10.6155 14.0438C10.1572 12.1024 10.0435 11.7564 9.69525 11.2501C9.42762 10.8603 9.69158 10.7875 7.32324 11.9203C6.17573 12.4703 5.22986 12.9256 5.22619 12.9292C5.22253 12.9329 5.24086 13.1405 5.27019 13.3918C5.43516 14.8342 5.42783 14.9763 5.16387 15.2313C4.98789 15.3988 4.37564 15.6829 4.19233 15.6829C3.96137 15.6829 3.90637 15.6064 1.87532 12.2517C1.42071 11.4978 1.03577 10.8275 1.0211 10.7656C0.980774 10.5507 0.999103 10.3504 1.06876 10.2302C1.23007 9.97157 1.747 9.74938 2.07329 9.80037C2.41058 9.85137 2.59389 9.94607 3.2538 10.405C3.62774 10.6636 3.95037 10.8749 3.9687 10.8749C3.98703 10.8749 4.86691 10.3467 5.9191 9.70203C6.97495 9.06095 7.8805 8.50366 7.93549 8.47088L8.03448 8.4126L7.56154 7.82616C6.98962 7.11952 6.78431 6.92647 4.06035 4.56616C3.37478 3.97244 2.77353 3.42972 2.72587 3.35687C2.62321 3.20024 2.61222 2.99991 2.70021 2.82871C2.81019 2.61745 3.18414 2.28963 3.47743 2.14757C3.7084 2.03101 3.79639 2.00916 4.03469 2.00187C4.18867 1.99459 4.39764 2.00916 4.50029 2.03466Z" fill="#D5D7E2"/>
</svg>
