<svg width="20" height="21" viewBox="0 0 20 21" fill="none" xmlns="http://www.w3.org/2000/svg">
<g clip-path="url(#clip0_803_66884)">
<g clip-path="url(#clip1_803_66884)">
<path d="M2.5 15.0499V17.5832C2.5 17.8166 2.68333 17.9999 2.91667 17.9999H5.45C5.55833 17.9999 5.66667 17.9582 5.74167 17.8749L14.8417 8.78322L11.7167 5.65822L2.625 14.7499C2.54167 14.8332 2.5 14.9332 2.5 15.0499ZM17.2583 6.36655C17.5833 6.04155 17.5833 5.51655 17.2583 5.19155L15.3083 3.24155C14.9833 2.91655 14.4583 2.91655 14.1333 3.24155L12.6083 4.76655L15.7333 7.89155L17.2583 6.36655V6.36655Z" fill="#007AFF"/>
</g>
</g>
<defs>
<clipPath id="clip0_803_66884">
<rect width="20" height="20" fill="white" transform="translate(0 0.5)"/>
</clipPath>
<clipPath id="clip1_803_66884">
<rect width="20" height="20" fill="white" transform="translate(0 0.5)"/>
</clipPath>
</defs>
</svg>
