<svg width="16" height="16" viewBox="0 0 16 16" fill="none" xmlns="http://www.w3.org/2000/svg">
<path d="M7.993 1C4.129 1 1 4.136 1 8C1 11.864 4.129 15 7.993 15C11.864 15 15 11.864 15 8C15 4.136 11.864 1 7.993 1ZM8 13.6C4.906 13.6 2.4 11.094 2.4 8C2.4 4.906 4.906 2.4 8 2.4C11.094 2.4 13.6 4.906 13.6 8C13.6 11.094 11.094 13.6 8 13.6ZM7.846 4.5H7.804C7.524 4.5 7.3 4.724 7.3 5.004V8.308C7.3 8.553 7.426 8.784 7.643 8.91L10.548 10.653C10.786 10.793 11.094 10.723 11.234 10.485C11.381 10.247 11.304 9.932 11.059 9.792L8.35 8.182V5.004C8.35 4.724 8.126 4.5 7.846 4.5V4.5Z" fill="#81838E"/>
</svg>
