<svg width="24" height="24" viewBox="0 0 24 24" fill="none" xmlns="http://www.w3.org/2000/svg">
<rect width="24" height="24" rx="12" fill="#2B3087"/>
<path fill-rule="evenodd" clip-rule="evenodd" d="M15.2853 8.28906C14.4494 8.28906 13.3044 8.28966 13.1497 8.28966C13.042 8.28966 12.9976 8.35182 12.9976 8.35182L7.11332 15.6505C7.079 15.6926 7.08632 15.7359 7.1456 15.7359C7.2806 15.7359 7.82396 15.7359 8.01668 15.7355C8.10404 15.7355 8.11268 15.7121 8.12816 15.6893L9.38072 14.0835C9.38072 14.0835 9.40016 14.0542 9.42644 14.0542C9.44684 14.0542 11.529 14.054 11.529 14.054C11.529 14.054 11.5612 14.0518 11.5549 14.0835C11.5483 14.1151 11.248 15.658 11.248 15.658C11.2442 15.6789 11.2501 15.7355 11.3232 15.7355C11.5978 15.7355 13.5751 15.7351 13.8639 15.7351C13.9006 15.7351 13.9135 15.7228 13.9206 15.6874L15.352 8.36574C15.3518 8.36574 15.3775 8.28906 15.2853 8.28906ZM11.6856 13.2946H10.032C10.032 13.2946 10.0214 13.297 10.0143 13.2869C10.0077 13.2772 10.0202 13.2622 10.0202 13.2622L12.2184 10.4431C12.2184 10.4431 12.2349 10.4211 12.2523 10.4211C12.2697 10.4211 12.2636 10.4455 12.2636 10.4455L11.7124 13.2723C11.7124 13.2723 11.7108 13.2842 11.7054 13.2895C11.7002 13.2946 11.6856 13.2946 11.6856 13.2946Z" fill="white"/>
<path fill-rule="evenodd" clip-rule="evenodd" d="M1.42945 14.8052C1.40857 14.8923 1.45597 14.9661 1.61389 15.0965C1.91149 15.3419 2.79481 15.8744 4.19629 15.8741C6.71953 15.8736 7.63453 14.2425 7.31461 12.8604C7.22893 12.4907 6.75625 10.5781 6.68785 10.3088C6.48901 9.52593 6.86953 8.96193 7.61665 8.96133C8.25541 8.96085 8.65417 9.20313 9.00325 9.42201C9.06889 9.46389 9.11713 9.48669 9.13453 9.40989C9.14485 9.36549 9.25957 8.77029 9.25957 8.77029C9.25957 8.77029 9.29341 8.65497 9.14317 8.57649C8.91109 8.45553 8.33389 8.12841 7.11673 8.12793C4.85389 8.12673 3.89077 9.57921 4.28485 11.1539C4.41085 11.6576 4.91545 13.5437 4.91737 13.907C4.91761 14.0466 4.99117 15.0095 3.83137 15.0095C2.75437 15.0095 2.01289 14.2737 1.76257 14.0192C1.72129 13.9767 1.66609 14.0001 1.64029 14.0928C1.62697 14.1408 1.42945 14.8052 1.42945 14.8052Z" fill="white"/>
<path fill-rule="evenodd" clip-rule="evenodd" d="M14.8112 14.8435C14.7905 14.9307 14.8378 15.0047 14.9959 15.1352C15.2936 15.3802 16.1069 15.8725 17.5086 15.8719C20.0318 15.8715 20.9467 14.2406 20.6264 12.8578C20.5414 12.4886 20.0682 10.5761 19.9999 10.3066C19.8016 9.5235 20.182 8.95962 20.9285 8.95902C21.5675 8.9589 21.9662 9.20106 22.315 9.42006C22.3811 9.46182 22.4292 9.48414 22.4466 9.4077C22.4567 9.36318 22.5715 8.76822 22.5715 8.76822C22.5715 8.76822 22.606 8.65326 22.4552 8.57442C22.2234 8.4531 21.6455 8.12646 20.4294 8.12598C18.1662 8.12454 17.2031 9.57726 17.597 11.1518C17.7232 11.6555 18.2279 13.5412 18.2297 13.9053C18.23 14.0445 18.3038 15.007 17.1437 15.007C16.0662 15.0073 15.3556 14.2973 15.1034 14.0451C15.0474 13.9895 14.9639 14.0101 14.9525 14.0911C14.9456 14.1395 14.8112 14.8435 14.8112 14.8435Z" fill="white"/>
</svg>
