<svg width="24" height="24" viewBox="0 0 24 24" fill="none" xmlns="http://www.w3.org/2000/svg">
<rect width="24" height="24" rx="12" fill="#0B96D4"/>
<path fill-rule="evenodd" clip-rule="evenodd" d="M7.55306 12.0569C7.55306 13.8145 6.12974 15.2334 4.37494 15.2334C2.62134 15.2334 1.19922 13.8145 1.19922 12.0569C1.19922 10.2999 2.62134 8.88015 4.37494 8.88015C6.12974 8.88015 7.55306 10.2999 7.55306 12.0569Z" fill="white"/>
<path fill-rule="evenodd" clip-rule="evenodd" d="M15.1771 12.0569C15.1771 13.8145 13.7535 15.2334 12.0011 15.2334C10.2467 15.2334 8.82422 13.8145 8.82422 12.0569C8.82422 10.2999 10.2467 8.88015 12.0011 8.88015C13.7535 8.88015 15.1771 10.2999 15.1771 12.0569Z" fill="#C7DFF2"/>
<path fill-rule="evenodd" clip-rule="evenodd" d="M22.7992 12.0569C22.7992 13.8145 21.3758 15.2334 19.6224 15.2334C17.8688 15.2334 16.4453 13.8145 16.4453 12.0569C16.4453 10.2999 17.8688 8.88015 19.6224 8.88015C21.3758 8.88015 22.7992 10.2999 22.7992 12.0569Z" fill="#8EBFE5"/>
</svg>
