<svg width="24" height="24" viewBox="0 0 24 24" fill="none" xmlns="http://www.w3.org/2000/svg">
<g clip-path="url(#clip0_809_52364)">
<rect width="24" height="24" rx="12" fill="#BED600"/>
<path d="M23.9999 12.0026C23.9999 18.6321 18.6311 24 12.0036 24C5.37522 24 0 18.6321 0 12.0026C0 5.37311 5.37522 0 12.0036 0C18.6312 0 23.9999 5.37311 23.9999 12.0026Z" fill="#BED600"/>
<path d="M11.1296 5.73901C9.23939 5.73901 8.01316 5.84349 7.12552 6.17301C5.63386 6.75408 4.60373 7.97192 4.60373 9.57238C4.60373 10.9054 5.22442 11.8707 7.0207 12.981C8.9373 14.1429 9.31965 14.5269 9.31965 15.227C9.31965 15.9932 8.56891 16.8654 6.63725 16.8654C5.96305 16.8654 4.94756 16.7721 4.29867 16.6133L3.98905 16.5353C3.81633 16.9983 3.42424 18.0936 3.30469 18.4911L3.61126 18.5812C4.19496 18.7674 5.58018 18.9128 6.57265 18.9128C9.87422 18.9128 11.8441 16.9181 11.8441 14.8294C11.8441 13.5459 11.2615 12.5705 9.29205 11.3417C8.30416 10.734 7.80073 10.34 7.495 10.0349C7.24718 9.71648 7.21975 9.4795 7.21975 9.22914C7.21975 8.99012 7.27292 8.7147 7.43049 8.51294C7.60092 8.26352 7.91351 8.1046 8.33659 7.97345C8.77144 7.82918 9.57712 7.82537 10.832 7.82537H12.0004L12.8347 5.7391H11.1296V5.73901ZM19.9595 5.73901H14.0882L13.2538 7.8252H15.1999C16.5094 7.8252 16.7613 7.797 17.0902 7.797C16.6155 8.88302 13.7543 16.174 13.7543 16.174H16.1758C16.1758 16.174 19.7981 7.098 20.182 6.14643C20.2884 5.93409 20.2355 5.73901 19.9595 5.73901Z" fill="white"/>
</g>
<defs>
<clipPath id="clip0_809_52364">
<rect width="24" height="24" rx="12" fill="white"/>
</clipPath>
</defs>
</svg>
