<svg width="24" height="24" viewBox="0 0 24 24" fill="none" xmlns="http://www.w3.org/2000/svg">
<rect width="24" height="24" rx="12" fill="#63003C"/>
<path d="M17.7166 13.9829C17.7277 14.2516 17.7257 14.5211 17.7126 14.7829C14.9998 14.8862 12.4306 15.0456 12.4306 15.2227C12.4306 15.3968 14.9435 15.5543 17.6232 15.6576C17.575 15.9567 17.5147 16.2509 17.4394 16.5382C14.7989 16.6435 12.3482 16.797 12.3482 16.9702C12.3482 17.1374 14.6352 17.287 17.1712 17.3923C17.0537 17.7042 16.9222 18.0092 16.7735 18.3014C14.598 18.4018 12.7992 18.5376 12.7992 18.6851C12.7992 18.8229 14.371 18.9508 16.3507 19.0482C16.2412 19.2233 16.1237 19.3965 16.0032 19.5589C15.8746 19.736 15.735 19.9101 15.5853 20.0823C14.3469 20.1748 13.4982 20.2762 13.4982 20.3883C13.4982 20.4828 14.1069 20.5723 15.044 20.652C14.5317 21.143 13.9271 21.6015 13.215 22C13.215 22 12.3733 21.3004 11.6833 20.4828C11.0646 19.7537 9.75593 17.8331 9.44457 17.4021C9.13623 16.9711 8.93435 16.8452 8.57378 16.9711C8.08967 17.1364 7.52621 17.2211 7.35245 17.2211C7.1797 17.2211 7.08429 17.1551 7.37556 17.043C7.66381 16.9308 8.80679 16.4073 9.36724 15.329C9.99999 14.1148 9.44357 12.4362 9.44357 12.4362C9.23265 13.3326 8.75155 13.6681 8.75155 13.6681C8.90623 12.8357 8.73649 12.08 8.31164 11.5497L8.0746 12.6045C8.0746 12.6045 7.92596 12.5976 7.55936 12.8957C7.19175 13.1948 7.09132 13.6307 7.09132 13.6307C7.38058 13.7429 7.72709 13.4634 7.72709 13.4634C7.28416 15.0682 6.64939 16.3749 6.18436 17.0666C5.72135 17.7573 5.33968 18.018 4.87566 18.1991C4.48395 18.3516 4.3554 18.1745 4.3554 18.1745C4.0129 17.8882 3.75779 17.6254 3.48962 17.3145C3.48962 17.3145 3.46853 17.2781 3.54085 17.2801C3.73268 17.2821 4.07216 16.9652 4.14749 16.8354C4.23186 16.6858 4.22282 16.5707 4.17863 16.5628C4.13845 16.5549 4.06513 16.674 3.69753 16.9003C3.32993 17.1246 3.1622 16.9672 3.04067 16.8432C2.94626 16.7438 3.03765 16.6209 3.09892 16.5431C3.15416 16.4752 5.08859 12.9803 10.2109 9.30927C16.9232 4.49687 21.2078 3.19907 21.4529 3.10461C21.6156 3.04262 21.8808 2.96095 21.94 3.02097C22.0073 3.08788 22.0395 3.142 22.0304 3.22071C22.0224 3.29844 21.9782 3.33878 21.6688 3.47063C19.0926 4.56968 16.0855 6.40176 14.3761 7.46834C12.2749 8.46014 10.2692 9.87503 10.1948 9.90848C10.0331 10.0059 10.1527 10.1466 10.2511 10.0885C13.7995 7.80287 17.9627 6.24728 22.5587 4.97112C22.7787 4.90914 22.8992 4.90914 22.9354 4.95833C22.9755 5.0095 22.9936 5.06853 22.9996 5.13446C23.0057 5.21612 22.9364 5.25941 22.7475 5.33124C17.809 7.10724 14.1682 8.7563 11.826 10.2824C11.826 10.2824 11.5829 10.4241 11.5809 10.5884C11.5799 10.6504 11.7115 10.6573 11.7115 10.6573C12.8846 10.6779 14.4504 10.7458 15.1956 10.7871C15.1956 10.7871 15.0892 11.1532 14.3751 11.4474C13.8237 11.6737 13.3154 11.6372 12.8092 11.6422C12.6957 11.6392 12.6023 11.7494 12.6917 11.8665C12.7379 11.9246 13.8126 13.5992 17.7166 13.9829Z" fill="white"/>
</svg>
