<svg width="24" height="24" viewBox="0 0 24 24" fill="none" xmlns="http://www.w3.org/2000/svg">
<g clip-path="url(#clip0_776_34327)">
<rect width="24" height="24" rx="12" fill="#C70A0C"/>
<path d="M13.2496 0.0793388C19.2793 0.71405 24 5.79174 24 12.0198C24 18.6446 18.6446 24 12.0198 24C5.39504 24 0 18.6446 0 12.0198C0 5.39504 5.35537 0 12.0198 0C12.4165 0 12.8529 0.0396694 13.2496 0.0793388ZM13.8843 23.1669C20.0331 22.1355 24.1983 16.3041 23.1669 10.1157C22.2942 4.99835 18.1289 1.26942 13.2099 0.753719C12.2182 0.634711 11.1868 0.67438 10.1554 0.833058C8.92562 1.0314 7.77521 1.4281 6.7438 1.98347C12.1388 3.84793 15.0744 6.66446 15.2727 9.52066C15.3917 11.3058 14.5587 12.5752 13.4479 13.6066L21.1438 13.0909C21.3421 13.0909 21.4215 13.3289 21.1835 13.4083L2.81653 18.6446C4.68099 21.2231 7.57686 22.9289 10.7901 23.2463C11.8215 23.3653 12.8529 23.3653 13.8843 23.1669ZM8.84628 12.2579C9.83802 8.48926 8.6876 4.52231 5.95041 2.41983C2.22149 4.8 0.0396694 9.24298 0.833058 13.8843C1.07107 15.4314 1.62645 16.8198 2.41983 18.0496C5.35537 17.2562 7.93388 15.7091 8.84628 12.2579" fill="white"/>
<path d="M13.8844 23.1665C20.0331 22.1351 24.1984 16.3037 23.167 10.1153C22.2943 4.99791 18.129 1.26898 13.21 0.753279C12.2183 0.63427 11.1869 0.67394 10.1554 0.832618C8.9257 1.03096 7.77528 1.42766 6.74388 1.98303C12.1389 3.84749 15.0745 6.66402 15.2728 9.52022C15.3918 11.3053 14.5588 12.5748 13.448 13.6062L21.1439 13.0905C21.3422 13.0905 21.4216 13.3285 21.1835 13.4078L2.81661 18.6442C4.68107 21.2227 7.57694 22.9285 10.7902 23.2458C11.8216 23.3648 12.853 23.3649 13.8844 23.1665ZM8.84636 12.2574C9.83809 8.48882 8.68768 4.52187 5.95049 2.41939C2.22156 4.79956 0.0397465 9.24254 0.833135 13.8839C1.07115 15.431 1.62652 16.8194 2.41991 18.0491C5.35545 17.2558 7.93396 15.7087 8.84636 12.2574V12.2574Z" fill="#C70A0C"/>
</g>
<defs>
<clipPath id="clip0_776_34327">
<rect width="24" height="24" rx="12" fill="white"/>
</clipPath>
</defs>
</svg>
