<svg width="24" height="24" viewBox="0 0 24 24" fill="none" xmlns="http://www.w3.org/2000/svg">
<g clip-path="url(#clip0_803_45584)">
<rect width="24" height="24" rx="12" fill="#F9BA00"/>
<path d="M16.653 9.61378C16.5618 9.61378 16.485 9.61615 16.4419 9.62095C16.3915 9.71217 16.3171 9.83454 16.2067 10.0049C17.9248 10.0049 19.4847 10.1465 21.21 10.456L20.7229 10.9264C19.1655 10.6504 17.8721 10.5401 16.2235 10.5401C15.9835 10.5401 15.9331 10.5401 15.8756 10.5425C15.8179 10.6288 15.6883 10.7968 15.5588 10.9528C15.7052 10.9432 15.9883 10.9384 16.3794 10.9384C17.7353 10.9384 19.0023 11.0392 20.3773 11.26L19.8902 11.7327C18.8439 11.5695 17.5649 11.4759 16.4178 11.4759C16.0099 11.4759 15.5468 11.4903 15.1316 11.5143C15.038 11.6223 14.7933 11.8863 14.7189 11.9679C15.2684 11.9103 15.8731 11.8839 16.593 11.8839C17.6177 11.8839 18.5968 11.9511 19.5231 12.0879L19.0359 12.5558C18.376 12.4742 17.5745 12.4262 16.8666 12.4262C15.0405 12.4262 13.6006 12.8221 12.1128 13.7316C13.531 15.253 15.8539 16.2153 18.1048 16.2153H18.316L17.5289 16.9761C14.2821 16.3665 10.865 14.9387 7.97819 12.9829C5.20175 11.1088 4.22989 10.5545 2.06299 9.59702L2.04859 9.04025L3.51479 9.66899L4.01393 9.27303L8.80127 11.4663L8.4893 11.7159L6.03205 10.6481L5.78967 10.8376L7.06633 11.5503C8.1438 12.1503 8.96445 12.419 9.72278 12.419C11.3809 12.419 12.8688 11.2432 13.8286 9.17707C14.5509 9.08343 15.3212 9.04025 16.2475 9.04025C18.148 9.04025 19.9933 9.22262 22.0835 9.61378L21.5748 10.1057C20.2742 9.83454 18.064 9.61378 16.653 9.61378ZM12 23.2799C5.77206 23.2799 0.720061 18.2279 0.720061 12C0.720061 5.77201 5.77206 0.719949 12 0.719949C18.228 0.719949 23.28 5.77201 23.28 12C23.28 18.2279 18.228 23.2799 12 23.2799ZM12 -9.53674e-07C5.36408 -9.53674e-07 0 5.36397 0 12C0 18.636 5.36408 24 12 24C18.636 24 24.0001 18.636 24.0001 12C24.0001 5.36397 18.636 -9.53674e-07 12 -9.53674e-07Z" fill="#0A1D3D"/>
</g>
<defs>
<clipPath id="clip0_803_45584">
<rect width="24" height="24" rx="12" fill="white"/>
</clipPath>
</defs>
</svg>
