<svg width="24" height="24" viewBox="0 0 24 24" fill="none" xmlns="http://www.w3.org/2000/svg">
<rect width="24" height="24" rx="12" fill="#0B96D4"/>
<path fill-rule="evenodd" clip-rule="evenodd" d="M7.55404 12.0569C7.55404 13.8145 6.13072 15.2334 4.37592 15.2334C2.62232 15.2334 1.2002 13.8145 1.2002 12.0569C1.2002 10.2999 2.62232 8.88015 4.37592 8.88015C6.13072 8.88015 7.55404 10.2999 7.55404 12.0569Z" fill="white"/>
<path fill-rule="evenodd" clip-rule="evenodd" d="M15.178 12.0569C15.178 13.8145 13.7545 15.2334 12.0021 15.2334C10.2477 15.2334 8.8252 13.8145 8.8252 12.0569C8.8252 10.2999 10.2477 8.88015 12.0021 8.88015C13.7545 8.88015 15.178 10.2999 15.178 12.0569Z" fill="#C7DFF2"/>
<path fill-rule="evenodd" clip-rule="evenodd" d="M22.8001 12.0569C22.8001 13.8145 21.3768 15.2334 19.6234 15.2334C17.8698 15.2334 16.4463 13.8145 16.4463 12.0569C16.4463 10.2999 17.8698 8.88015 19.6234 8.88015C21.3768 8.88015 22.8001 10.2999 22.8001 12.0569Z" fill="#8EBFE5"/>
</svg>
