<svg width="24" height="24" viewBox="0 0 24 24" fill="none" xmlns="http://www.w3.org/2000/svg">
<rect width="24" height="24" rx="12" fill="#2B3087"/>
<path fill-rule="evenodd" clip-rule="evenodd" d="M15.2843 8.28931C14.4484 8.28931 13.3034 8.28991 13.1487 8.28991C13.0411 8.28991 12.9967 8.35207 12.9967 8.35207L7.11234 15.6507C7.07802 15.6928 7.08534 15.7361 7.14462 15.7361C7.27962 15.7361 7.82298 15.7361 8.0157 15.7358C8.10306 15.7358 8.1117 15.7124 8.12718 15.6896L9.37974 14.0837C9.37974 14.0837 9.39918 14.0545 9.42546 14.0545C9.44586 14.0545 11.528 14.0542 11.528 14.0542C11.528 14.0542 11.5603 14.0521 11.5539 14.0837C11.5473 14.1153 11.2471 15.6583 11.2471 15.6583C11.2432 15.6791 11.2491 15.7358 11.3222 15.7358C11.5969 15.7358 13.5741 15.7353 13.8629 15.7353C13.8997 15.7353 13.9125 15.7231 13.9196 15.6877L15.3511 8.36599C15.3508 8.36599 15.3765 8.28931 15.2843 8.28931ZM11.6846 13.2949H10.031C10.031 13.2949 10.0204 13.2973 10.0133 13.2872C10.0067 13.2775 10.0192 13.2625 10.0192 13.2625L12.2174 10.4433C12.2174 10.4433 12.2339 10.4213 12.2513 10.4213C12.2687 10.4213 12.2626 10.4457 12.2626 10.4457L11.7115 13.2725C11.7115 13.2725 11.7098 13.2844 11.7044 13.2897C11.6992 13.2949 11.6846 13.2949 11.6846 13.2949Z" fill="white"/>
<path fill-rule="evenodd" clip-rule="evenodd" d="M1.43043 14.8055C1.40955 14.8926 1.45695 14.9664 1.61487 15.0967C1.91247 15.3421 2.79579 15.8747 4.19727 15.8743C6.72051 15.8738 7.63551 14.2428 7.31559 12.8606C7.22991 12.4909 6.75723 10.5783 6.68883 10.3091C6.48999 9.52617 6.87051 8.96217 7.61763 8.96157C8.25639 8.96109 8.65515 9.20337 9.00423 9.42225C9.06987 9.46413 9.11811 9.48693 9.13551 9.41013C9.14583 9.36573 9.26055 8.77053 9.26055 8.77053C9.26055 8.77053 9.29439 8.65521 9.14415 8.57673C8.91207 8.45577 8.33487 8.12865 7.11771 8.12817C4.85487 8.12697 3.89175 9.57945 4.28583 11.1541C4.41183 11.6579 4.91643 13.5439 4.91835 13.9073C4.91859 14.0468 4.99215 15.0097 3.83235 15.0097C2.75535 15.0097 2.01387 14.274 1.76355 14.0195C1.72227 13.977 1.66707 14.0004 1.64127 14.093C1.62795 14.141 1.43043 14.8055 1.43043 14.8055Z" fill="white"/>
<path fill-rule="evenodd" clip-rule="evenodd" d="M14.8112 14.8435C14.7905 14.9307 14.8378 15.0047 14.9959 15.1352C15.2936 15.3802 16.1069 15.8725 17.5086 15.8719C20.0318 15.8715 20.9467 14.2406 20.6264 12.8578C20.5414 12.4886 20.0682 10.5761 19.9999 10.3066C19.8016 9.5235 20.182 8.95962 20.9285 8.95902C21.5675 8.9589 21.9662 9.20106 22.315 9.42006C22.3811 9.46182 22.4292 9.48414 22.4466 9.4077C22.4567 9.36318 22.5715 8.76822 22.5715 8.76822C22.5715 8.76822 22.606 8.65326 22.4552 8.57442C22.2234 8.4531 21.6455 8.12646 20.4294 8.12598C18.1662 8.12454 17.2031 9.57726 17.597 11.1518C17.7232 11.6555 18.2279 13.5412 18.2297 13.9053C18.23 14.0445 18.3038 15.007 17.1437 15.007C16.0662 15.0073 15.3556 14.2973 15.1034 14.0451C15.0474 13.9895 14.9639 14.0101 14.9525 14.0911C14.9456 14.1395 14.8112 14.8435 14.8112 14.8435Z" fill="white"/>
</svg>
