<svg width="44" height="12" viewBox="0 0 44 12" fill="none" xmlns="http://www.w3.org/2000/svg">
<g clip-path="url(#clip0_776_30800)">
<path fill-rule="evenodd" clip-rule="evenodd" d="M12.3337 2.2831e-07V0.0052404C12.3285 0.0052404 10.6778 1.99897e-07 10.2377 1.57729C9.83417 3.02358 8.69706 7.01659 8.66561 7.12664H8.3512C8.3512 7.12664 7.18789 3.04454 6.77915 1.57205C6.33898 -0.00523999 4.68308 2.2831e-07 4.68308 2.2831e-07H0.910156V12H4.68308V4.87336H4.84029H4.99749L7.19837 12H9.81845L12.0193 4.8786H12.3337V12H16.1067V2.2831e-07H12.3337Z" fill="white"/>
<path fill-rule="evenodd" clip-rule="evenodd" d="M26.1147 0C26.1147 0 25.0091 0.0995633 24.4903 1.25764L21.8178 7.12664H21.5034V0H17.7305V12H21.2938C21.2938 12 22.4519 11.8952 22.9706 10.7424L25.5907 4.87336H25.9051V12H29.6781V0H26.1147Z" fill="white"/>
<path fill-rule="evenodd" clip-rule="evenodd" d="M31.3555 5.44971V11.9999H35.1284V8.1746H39.2157C40.9974 8.1746 42.5066 7.03748 43.0673 5.44971H31.3555Z" fill="white"/>
<path fill-rule="evenodd" clip-rule="evenodd" d="M39.2157 0H30.8262C31.2454 2.28472 32.9589 4.11878 35.1755 4.71616C35.6786 4.8524 36.2078 4.92576 36.7528 4.92576H43.2192C43.2768 4.65327 43.303 4.37555 43.303 4.08734C43.303 1.82882 41.4742 0 39.2157 0Z" fill="white"/>
</g>
<defs>
<clipPath id="clip0_776_30800">
<rect width="42.393" height="12" fill="white" transform="translate(0.910156)"/>
</clipPath>
</defs>
</svg>
