<svg width="94" height="16" viewBox="0 0 94 16" fill="none" xmlns="http://www.w3.org/2000/svg">
<path d="M93.7071 8.70711C94.0976 8.31658 94.0976 7.68342 93.7071 7.29289L87.3431 0.928932C86.9526 0.538408 86.3195 0.538408 85.9289 0.928932C85.5384 1.31946 85.5384 1.95262 85.9289 2.34315L91.5858 8L85.9289 13.6569C85.5384 14.0474 85.5384 14.6805 85.9289 15.0711C86.3195 15.4616 86.9526 15.4616 87.3431 15.0711L93.7071 8.70711ZM1.5 7C0.947715 7 0.5 7.44772 0.5 8C0.5 8.55228 0.947715 9 1.5 9V7ZM93 7H1.5V9H93V7Z" fill="#D5D7E2"/>
</svg>
