<svg width="98" height="16" viewBox="0 0 98 16" fill="none" xmlns="http://www.w3.org/2000/svg">
<path d="M97.7071 8.70711C98.0976 8.31658 98.0976 7.68342 97.7071 7.29289L91.3431 0.928932C90.9526 0.538408 90.3195 0.538408 89.9289 0.928932C89.5384 1.31946 89.5384 1.95262 89.9289 2.34315L95.5858 8L89.9289 13.6569C89.5384 14.0474 89.5384 14.6805 89.9289 15.0711C90.3195 15.4616 90.9526 15.4616 91.3431 15.0711L97.7071 8.70711ZM1.5 7C0.947715 7 0.5 7.44772 0.5 8C0.5 8.55228 0.947715 9 1.5 9V7ZM97 7H1.5V9H97V7Z" fill="#D5D7E2"/>
</svg>
