<svg width="38" height="12" viewBox="0 0 38 12" fill="none" xmlns="http://www.w3.org/2000/svg">
<g clip-path="url(#clip0_776_42818)">
<path d="M16.0671 11.8268H13.0635L14.9422 0.210449H17.9456L16.0671 11.8268Z" fill="white"/>
<path d="M26.9558 0.494553C26.3634 0.259513 25.4237 0 24.2618 0C21.2957 0 19.2069 1.58171 19.1941 3.84309C19.1695 5.51153 20.6896 6.43822 21.8265 6.99453C22.9886 7.56299 23.3836 7.93403 23.3836 8.44074C23.3718 9.21895 22.4446 9.57767 21.5798 9.57767C20.3806 9.57767 19.7381 9.39272 18.7616 8.95976L18.3661 8.77416L17.9458 11.3818C18.6503 11.7027 19.9482 11.9875 21.2957 12C24.4473 12 26.499 10.4428 26.5234 8.03291C26.5353 6.71054 25.7327 5.69729 24.0021 4.86931C22.9516 4.33781 22.3082 3.97942 22.3082 3.43559C22.3206 2.9412 22.8524 2.43482 24.0383 2.43482C25.0147 2.41002 25.7322 2.64473 26.2757 2.87961L26.5473 3.00296L26.9558 0.494553V0.494553Z" fill="white"/>
<path d="M30.9479 7.71152C31.1952 7.04418 32.147 4.46137 32.147 4.46137C32.1346 4.48617 32.3939 3.78171 32.5422 3.34924L32.7521 4.35017C32.7521 4.35017 33.3209 7.13074 33.4444 7.71152C32.975 7.71152 31.5411 7.71152 30.9479 7.71152ZM34.6555 0.210449H32.3322C31.6157 0.210449 31.0714 0.420359 30.7623 1.17426L26.3008 11.8266H29.4524C29.4524 11.8266 29.9712 10.3929 30.0828 10.0841C30.4285 10.0841 33.4944 10.0841 33.9392 10.0841C34.0254 10.4919 34.2976 11.8266 34.2976 11.8266H37.0786L34.6555 0.210449V0.210449Z" fill="white"/>
<path d="M10.5548 0.210449L7.61329 8.13167L7.29186 6.52515C6.74803 4.67144 5.04247 2.65743 3.13916 1.656L5.83349 11.8144H9.00973L13.7309 0.210449H10.5548V0.210449Z" fill="white"/>
<path d="M4.88196 0.210449H0.0494386L0 0.44516C3.76967 1.40914 6.26625 3.73276 7.29198 6.52564L6.24145 1.18691C6.06849 0.444996 5.53698 0.234922 4.88196 0.210449Z" fill="white"/>
<g clip-path="url(#clip1_776_42818)">
<path d="M16.0671 11.8268H13.0635L14.9422 0.210449H17.9456L16.0671 11.8268Z" fill="white"/>
<path d="M26.9558 0.494553C26.3634 0.259513 25.4237 0 24.2618 0C21.2957 0 19.2069 1.58171 19.1941 3.84309C19.1695 5.51153 20.6896 6.43822 21.8265 6.99453C22.9886 7.56299 23.3836 7.93403 23.3836 8.44074C23.3718 9.21895 22.4446 9.57767 21.5798 9.57767C20.3806 9.57767 19.7381 9.39272 18.7616 8.95976L18.3661 8.77416L17.9458 11.3818C18.6503 11.7027 19.9482 11.9875 21.2957 12C24.4473 12 26.499 10.4428 26.5234 8.03291C26.5353 6.71054 25.7327 5.69729 24.0021 4.86931C22.9516 4.33781 22.3082 3.97942 22.3082 3.43559C22.3206 2.9412 22.8524 2.43482 24.0383 2.43482C25.0147 2.41002 25.7322 2.64473 26.2757 2.87961L26.5473 3.00296L26.9558 0.494553V0.494553Z" fill="white"/>
<path d="M30.9479 7.71152C31.1952 7.04418 32.147 4.46137 32.147 4.46137C32.1346 4.48617 32.3939 3.78171 32.5422 3.34924L32.7521 4.35017C32.7521 4.35017 33.3209 7.13074 33.4444 7.71152C32.975 7.71152 31.5411 7.71152 30.9479 7.71152ZM34.6555 0.210449H32.3322C31.6157 0.210449 31.0714 0.420359 30.7623 1.17426L26.3008 11.8266H29.4524C29.4524 11.8266 29.9712 10.3929 30.0828 10.0841C30.4285 10.0841 33.4944 10.0841 33.9392 10.0841C34.0254 10.4919 34.2976 11.8266 34.2976 11.8266H37.0786L34.6555 0.210449V0.210449Z" fill="white"/>
<path d="M10.5548 0.210449L7.61329 8.13167L7.29186 6.52515C6.74803 4.67144 5.04247 2.65743 3.13916 1.656L5.83349 11.8144H9.00973L13.7309 0.210449H10.5548V0.210449Z" fill="white"/>
<path d="M4.88196 0.210449H0.0494386L0 0.44516C3.76967 1.40914 6.26625 3.73276 7.29198 6.52564L6.24145 1.18691C6.06849 0.444996 5.53698 0.234922 4.88196 0.210449Z" fill="white"/>
</g>
</g>
<defs>
<clipPath id="clip0_776_42818">
<rect width="37.0785" height="12" fill="white"/>
</clipPath>
<clipPath id="clip1_776_42818">
<rect width="37.0785" height="12" fill="white"/>
</clipPath>
</defs>
</svg>
